<svg width="602" height="477" viewBox="0 0 602 477" fill="none" xmlns="http://www.w3.org/2000/svg">
<g clip-path="url(#clip0_2161_2987)">
<path d="M717.409 174.371C716.841 174.426 716.314 174.487 715.808 174.548C715.171 176.504 713.358 177.926 711.195 177.926C708.502 177.926 706.322 175.74 706.322 173.039C706.322 171.784 706.807 170.651 707.582 169.786C707.382 169.316 707.171 168.829 706.936 168.308C705.413 164.873 703.134 160.436 700.627 156.129C698.141 151.812 695.401 147.641 693.216 144.588C692.887 144.124 692.574 143.696 692.272 143.287C691.96 143.35 691.638 143.384 691.308 143.384C688.617 143.384 686.434 141.197 686.434 138.497C686.434 135.798 688.617 133.609 691.308 133.609C691.666 133.609 692.012 133.653 692.348 133.726C692.65 133.324 692.961 132.903 693.288 132.447C695.497 129.407 698.16 125.193 700.574 120.834C703.03 116.498 705.285 112.048 706.835 108.627C707.08 108.096 707.301 107.6 707.512 107.123C706.78 106.267 706.322 105.169 706.322 103.954C706.322 102.374 707.081 100.985 708.24 100.092C708.133 99.8509 708.027 99.6134 707.912 99.3584C706.523 96.3002 704.573 92.2742 702.531 88.2954C700.485 84.3194 698.344 80.3921 696.669 77.4823C695.693 75.7953 694.891 74.464 694.381 73.6303C694.238 73.5861 694.095 73.5462 693.965 73.4593C693.625 73.2311 693.414 72.8914 693.32 72.5241C693.15 72.4916 692.987 72.4582 692.795 72.4256C691.589 72.2148 689.973 72.0178 688.353 71.9092C686.731 71.8064 685.106 71.7868 683.88 71.8418C683.679 71.8498 683.507 71.8614 683.329 71.873C683.289 71.973 683.269 72.078 683.207 72.1714C682.718 72.9052 681.731 73.1037 680.998 72.6132C680.268 72.125 680.07 71.1333 680.558 70.3988C680.614 70.3149 680.696 70.2634 680.764 70.1932C680.702 70.0229 680.644 69.8578 680.571 69.6659C680.137 68.5178 679.503 67.0155 678.784 65.5544C678.078 64.0883 677.292 62.6585 676.639 61.6212C676.501 61.4003 676.375 61.2068 676.253 61.0236C675.848 61.1098 675.412 61.0417 675.04 60.7925C674.903 60.7013 674.805 60.5781 674.706 60.4565C673.866 60.3811 672.729 60.2869 671.368 60.1964C668.445 60.0088 664.546 59.8625 660.646 59.8233C656.745 59.7894 652.844 59.8582 649.918 59.9944C648.343 60.0711 647.066 60.158 646.207 60.2233C646.178 60.2797 646.173 60.342 646.137 60.3957C645.654 61.1206 644.792 61.4184 643.994 61.2301C643.851 61.4061 643.713 61.5756 643.554 61.7784C642.589 62.9975 641.377 64.675 640.23 66.3954C639.088 68.1186 638.015 69.8868 637.259 71.2478C637.136 71.4652 637.025 71.668 636.921 71.8627C637.4 72.53 637.456 73.4419 636.974 74.1663C636.354 75.097 635.099 75.3505 634.168 74.7284C633.736 74.4394 633.468 74.0062 633.349 73.5382C633.139 73.4977 632.919 73.4572 632.682 73.4173C631.15 73.1471 629.098 72.8994 627.039 72.7602C624.981 72.6291 622.915 72.6031 621.359 72.6755C621.109 72.6849 620.879 72.6972 620.657 72.711C620.606 72.8386 620.58 72.9733 620.501 73.0921C620.031 73.7982 619.198 74.109 618.417 73.9504L605.767 93.6607C607.295 95.071 607.627 97.4157 606.438 99.2026C606.263 99.4649 606.062 99.6974 605.845 99.9082C605.991 100.326 606.146 100.761 606.32 101.224C607.458 104.33 609.236 108.345 611.238 112.247C613.203 116.168 615.35 119.998 617.091 122.807C617.359 123.247 617.612 123.651 617.858 124.038C618.84 123.918 619.866 124.118 620.754 124.712C622.724 126.031 623.255 128.7 621.939 130.678C620.913 132.219 619.072 132.868 617.375 132.46C617.084 132.82 616.783 133.196 616.462 133.606C614.416 136.194 611.845 139.75 609.413 143.397C606.989 147.05 604.713 150.802 603.111 153.687C602.855 154.143 602.623 154.566 602.403 154.974C603.425 156.389 603.532 158.339 602.508 159.877C601.193 161.855 598.53 162.387 596.56 161.069C595.639 160.452 595.047 159.537 594.795 158.539C594.357 158.455 593.9 158.371 593.408 158.288C590.156 157.716 585.805 157.189 581.438 156.895C577.073 156.615 572.69 156.565 569.391 156.715C568.897 156.734 568.438 156.757 567.997 156.784C567.886 157.066 567.749 157.341 567.574 157.604C566.426 159.33 564.247 159.954 562.402 159.204C561.812 159.976 561.146 160.851 560.414 161.831C559.086 163.641 557.499 165.726 555.868 168.009C554.221 170.28 552.506 172.732 550.788 175.182C549.089 177.646 547.391 180.109 545.832 182.442C544.265 184.77 542.855 186.978 541.619 188.853C540.563 190.459 539.713 191.846 539.045 192.911C539.674 193.851 539.717 195.115 539.052 196.115C538.935 196.29 538.8 196.446 538.654 196.587C538.752 196.867 538.856 197.158 538.973 197.468C539.736 199.548 540.925 202.236 542.264 204.849C543.581 207.471 545.019 210.036 546.183 211.917C546.362 212.211 546.532 212.481 546.696 212.74C547.353 212.66 548.04 212.794 548.634 213.192C549.954 214.075 550.309 215.862 549.43 217.186C548.743 218.216 547.511 218.65 546.374 218.378C546.18 218.619 545.978 218.87 545.763 219.146C544.393 220.878 542.672 223.259 541.045 225.7C539.422 228.145 537.897 230.656 536.825 232.588C536.653 232.893 536.498 233.177 536.351 233.45C537.035 234.398 537.108 235.704 536.422 236.733C535.542 238.056 533.757 238.414 532.438 237.53C531.822 237.118 531.426 236.505 531.257 235.837C530.964 235.78 530.657 235.725 530.327 235.669C528.151 235.285 525.239 234.932 522.315 234.736C519.394 234.548 516.461 234.514 514.254 234.615C513.923 234.627 513.615 234.644 513.321 234.661C513.245 234.85 513.154 235.034 513.037 235.209C512.159 236.531 510.376 236.889 509.053 236.006C507.736 235.124 507.38 233.335 508.261 232.012C508.365 231.855 508.485 231.713 508.613 231.584C508.51 231.3 508.403 231.005 508.282 230.688C507.499 228.618 506.355 225.909 505.06 223.273C503.786 220.628 502.37 218.053 501.191 216.179C500.947 215.786 500.718 215.432 500.501 215.105C499.77 215.263 498.978 215.138 498.305 214.688C496.985 213.805 496.632 212.017 497.511 210.695C498.302 209.505 499.819 209.106 501.076 209.675C501.246 209.469 501.426 209.253 501.61 209.023C503.006 207.308 504.774 204.959 506.407 202.518C508.053 200.092 509.57 197.574 510.596 195.612C510.755 195.315 510.898 195.036 511.034 194.767C510.285 193.814 510.183 192.458 510.891 191.394C511.772 190.072 513.552 189.715 514.875 190.599C515.488 191.009 515.883 191.618 516.051 192.283C516.346 192.338 516.652 192.394 516.981 192.448C519.16 192.822 522.075 193.154 524.996 193.331C527.923 193.52 530.855 193.536 533.062 193.462C533.397 193.452 533.709 193.439 534.008 193.424C534.078 193.25 534.166 193.081 534.274 192.919C534.962 191.886 536.2 191.452 537.338 191.728C538.104 190.73 539.111 189.45 540.254 187.897C541.581 186.087 543.161 183.997 544.799 181.719C546.444 179.447 548.164 176.998 549.883 174.549C551.583 172.086 553.285 169.625 554.843 167.292C556.417 164.969 557.82 162.755 559.056 160.881C559.724 159.848 560.316 158.916 560.836 158.09C559.549 156.662 559.325 154.501 560.44 152.829C560.597 152.593 560.774 152.382 560.966 152.187C560.813 151.763 560.65 151.322 560.47 150.849C559.299 147.757 557.593 143.71 555.661 139.771C553.759 135.82 551.643 131.973 549.879 129.176C549.515 128.589 549.172 128.059 548.847 127.57C547.755 127.804 546.573 127.617 545.57 126.945C543.6 125.628 543.068 122.958 544.384 120.98C545.566 119.205 547.83 118.608 549.707 119.457C549.963 119.15 550.23 118.827 550.507 118.483C552.592 115.923 555.235 112.416 557.669 108.768C560.129 105.142 562.394 101.381 563.93 98.4508C564.167 98.0068 564.38 97.5903 564.582 97.189C563.466 95.7656 563.312 93.7396 564.369 92.1511C564.701 91.6528 565.119 91.2471 565.589 90.9393C565.575 90.8951 565.562 90.8561 565.547 90.8111C564.721 88.3288 563.523 85.0569 562.227 81.8256C560.927 78.5956 559.53 75.4048 558.404 73.0428C558.056 72.317 557.741 71.6803 557.465 71.1305C557.134 71.0747 556.808 70.9531 556.516 70.7438C555.996 70.3721 555.681 69.8224 555.591 69.2385C555.289 69.1682 554.964 69.0965 554.607 69.0249C552.899 68.6691 550.607 68.3352 548.304 68.1237C546.004 67.8962 543.692 67.8 541.949 67.7955C541.682 67.7934 541.434 67.7949 541.197 67.797C541.138 67.9274 541.067 68.0542 540.981 68.1751C540.257 69.1907 538.841 69.4224 537.823 68.6923C536.803 67.9608 536.562 66.5439 537.287 65.5283C537.383 65.3936 537.492 65.2755 537.61 65.169C537.54 64.9453 537.465 64.7135 537.382 64.4657C536.833 62.807 535.982 60.6499 535.024 58.5421C534.057 56.4355 532.977 54.3814 532.081 52.8791C531.948 52.6509 531.82 52.4408 531.696 52.2394C531.159 52.2995 530.597 52.1756 530.119 51.8346C529.693 51.5281 529.412 51.0993 529.272 50.6328L516.744 50.07C516.364 50.4401 515.843 50.5966 515.326 50.485C515.219 50.6242 515.115 50.7574 514.999 50.9182C514.274 51.9034 513.39 53.2688 512.584 54.679C511.766 56.082 511.029 57.5337 510.518 58.6449C510.441 58.8092 510.381 58.9491 510.314 59.0976C510.894 59.5916 511.083 60.4231 510.686 61.1005C510.243 61.8596 509.267 62.1123 508.504 61.6646C508.118 61.4365 507.864 61.0706 507.763 60.6673C507.545 60.6376 507.315 60.6065 507.057 60.5789C505.837 60.4369 504.208 60.3464 502.581 60.347C500.952 60.3347 499.325 60.4123 498.106 60.5188C497.898 60.5361 497.723 60.555 497.541 60.5738C497.508 60.6651 497.497 60.7607 497.447 60.8477C497.005 61.606 496.028 61.8581 495.266 61.4104C494.506 60.9628 494.246 59.9841 494.688 59.2236C494.744 59.1266 494.831 59.0628 494.903 58.9824C494.834 58.8172 494.77 58.6572 494.688 58.4717C494.199 57.341 493.463 55.8807 492.659 54.4603C491.845 53.0449 490.958 51.6715 490.233 50.672C490.118 50.5126 490.019 50.3808 489.915 50.2416C489.542 50.3155 489.145 50.2728 488.791 50.0649C488.031 49.6166 487.774 48.6365 488.216 47.8774C488.561 47.2885 489.226 47.0161 489.863 47.1291C489.967 46.9849 490.068 46.8459 490.183 46.6801C490.88 45.6776 491.755 44.3085 492.576 42.9091C493.396 41.5053 494.162 40.0689 494.688 38.9665C494.777 38.7846 494.848 38.6288 494.923 38.4673C494.513 37.964 494.423 37.2482 494.769 36.6594C495.214 35.8988 496.19 35.6474 496.95 36.0951C497.291 36.2951 497.512 36.6087 497.633 36.9527C497.811 36.9745 497.984 36.9954 498.187 37.0157C499.406 37.1476 501.033 37.2504 502.662 37.278C504.289 37.3192 505.918 37.27 507.14 37.1512C507.341 37.1331 507.513 37.1121 507.689 37.0911C507.724 36.9889 507.737 36.8833 507.793 36.7868C508.238 36.027 509.212 35.775 509.978 36.2225C510.738 36.6717 510.998 37.6509 510.553 38.4087C510.501 38.4977 510.42 38.555 510.355 38.6303C510.426 38.7969 510.493 38.9592 510.579 39.1475C511.078 40.2703 511.804 41.7357 512.616 43.1539C513.416 44.5758 514.294 45.9565 515.014 46.9568C515.128 47.1176 515.229 47.2515 515.334 47.392C515.703 47.3196 516.099 47.3623 516.45 47.5688C516.853 47.8063 517.104 48.196 517.195 48.6214L529.326 49.1659C529.392 48.995 529.473 48.827 529.584 48.6706C530.146 47.881 531.126 47.5731 532.014 47.8151C532.179 47.6261 532.336 47.4457 532.518 47.2284C533.634 45.902 535.051 44.0818 536.39 42.2079C537.727 40.3319 538.992 38.4022 539.88 36.9107C540.022 36.676 540.15 36.4572 540.272 36.2465C539.751 35.4823 539.723 34.4508 540.287 33.6583C540.35 33.5714 540.423 33.4975 540.495 33.4222L537.487 27.655C537.364 27.6173 537.24 27.5724 537.129 27.4927C536.856 27.2971 536.691 27.0081 536.643 26.701C536.482 26.6633 536.314 26.6249 536.123 26.5872C535.224 26.3997 534.018 26.2236 532.806 26.1143C531.592 25.9932 530.376 25.9433 529.457 25.9397C529.302 25.9382 529.172 25.9412 529.037 25.9427C529.006 26.0093 528.992 26.0794 528.949 26.141C528.564 26.6749 527.822 26.7965 527.284 26.412C526.747 26.0259 526.62 25.2813 527.001 24.7452C527.05 24.6764 527.118 24.6351 527.179 24.5801C527.138 24.4533 527.101 24.3301 527.053 24.1874C526.761 23.3132 526.316 22.1767 525.811 21.0656C525.299 19.9573 524.73 18.8759 524.262 18.0849C524.187 17.958 524.121 17.853 524.053 17.7422C523.771 17.7726 523.478 17.7133 523.228 17.5351C522.69 17.1497 522.563 16.4051 522.945 15.8683C523.241 15.4526 523.755 15.2961 524.222 15.4235C524.308 15.3222 524.394 15.2258 524.49 15.1092C525.077 14.4109 525.825 13.4533 526.53 12.4668C527.235 11.4773 527.9 10.461 528.368 9.67804C528.446 9.54839 528.509 9.43609 528.576 9.32097C528.304 8.91895 528.285 8.38075 528.582 7.96345C528.963 7.42895 529.708 7.30864 530.246 7.69256C530.486 7.8642 530.63 8.11268 530.696 8.37778C530.828 8.40537 530.955 8.43282 531.104 8.46189C532.002 8.6408 533.208 8.82757 534.419 8.95796C535.628 9.09934 536.846 9.17025 537.764 9.16595C537.915 9.16595 538.042 9.1615 538.176 9.15794C538.209 9.08406 538.226 9.00588 538.274 8.93705C538.656 8.4024 539.401 8.27928 539.939 8.66616C540.475 9.05142 540.603 9.79687 540.221 10.3314C540.176 10.3944 540.112 10.4321 540.058 10.4836C540.1 10.6117 540.139 10.7363 540.189 10.8811C540.488 11.7518 540.928 12.8905 541.437 13.9995C541.938 15.1121 542.498 16.1971 542.964 16.9904C543.039 17.1178 543.106 17.2243 543.174 17.3359C543.455 17.3069 543.747 17.3648 543.995 17.5424C544.532 17.9269 544.658 18.6731 544.277 19.2076C543.971 19.6349 543.438 19.7849 542.961 19.6364C542.873 19.7327 542.787 19.8254 542.689 19.937C542.082 20.6209 541.331 21.577 540.636 22.5707C539.934 23.5595 539.286 24.5894 538.831 25.3826C538.763 25.5 538.708 25.5992 538.65 25.7057C539.017 26.0794 539.101 26.6344 538.848 27.0958L541.794 32.7435C542.355 32.6617 542.947 32.7862 543.446 33.144C543.905 33.4736 544.197 33.9438 544.324 34.4515C544.561 34.5015 544.807 34.5523 545.074 34.6036C546.783 34.9441 549.073 35.2991 551.373 35.546C553.67 35.8141 555.979 35.9516 557.722 35.9393C557.983 35.9401 558.225 35.9358 558.459 35.9307C558.521 35.7843 558.598 35.6423 558.694 35.5076C559.418 34.4935 560.834 34.2596 561.852 34.9905C562.873 35.7214 563.112 37.1381 562.387 38.153C562.298 38.2776 562.199 38.3891 562.092 38.4898C562.166 38.715 562.243 38.949 562.33 39.1997C562.895 40.8498 563.734 43.0141 564.696 45.1213C565.649 47.2342 566.713 49.295 567.602 50.7994C567.735 51.029 567.862 51.2406 567.986 51.4426C568.522 51.3846 569.081 51.5085 569.556 51.8482C570.576 52.5798 570.816 53.9945 570.092 55.0101C569.51 55.8257 568.487 56.1255 567.577 55.8387C567.413 56.0176 567.255 56.1872 567.075 56.3928C565.922 57.6959 564.499 59.5097 563.18 61.398C561.845 63.2764 560.618 65.2306 559.748 66.7387C559.632 66.9387 559.524 67.1291 559.421 67.3125C560.194 68.0846 560.325 69.3167 559.676 70.228C559.577 70.367 559.463 70.488 559.341 70.5973C559.508 71.1385 559.702 71.7498 559.926 72.427C560.75 74.9108 561.952 78.1805 563.251 81.4112C564.554 84.6403 565.956 87.8289 567.079 90.1917C567.1 90.2352 567.118 90.2729 567.139 90.3156C568.204 90.1136 569.345 90.3091 570.318 90.9603C571.235 91.5739 571.825 92.4828 572.078 93.4753C572.518 93.5579 572.978 93.6411 573.473 93.7223C576.725 94.2829 581.077 94.7791 585.445 95.0414C589.812 95.3274 594.195 95.3513 597.491 95.2384C597.992 95.2231 598.457 95.2035 598.903 95.1811C599.009 94.9218 599.141 94.669 599.302 94.4271C600.465 92.6806 602.681 92.0657 604.542 92.8581L617.192 73.1464C616.712 72.4793 616.653 71.5658 617.137 70.8408C617.209 70.7335 617.312 70.6684 617.399 70.58C617.323 70.3677 617.242 70.1468 617.151 69.9093C616.6 68.451 615.794 66.5424 614.883 64.686C613.988 62.8222 612.989 61.0077 612.158 59.6894C611.984 59.409 611.823 59.1635 611.669 58.9303C611.154 59.0404 610.597 58.9549 610.126 58.6391C609.196 58.0168 608.947 56.7572 609.567 55.8257C610.12 54.9948 611.168 54.7428 612.051 55.131C612.183 54.9731 612.308 54.8261 612.452 54.6472C613.437 53.4389 614.683 51.7853 615.831 50.0664C616.99 48.3555 618.06 46.5816 618.783 45.2017C618.89 45.0017 618.986 44.814 619.077 44.6331C618.834 44.3803 618.651 44.0905 618.567 43.7617C618.361 43.7225 618.146 43.6827 617.914 43.6436C616.411 43.3777 614.396 43.135 612.376 42.9989C610.357 42.8692 608.329 42.8468 606.804 42.9156C606.56 42.925 606.334 42.9373 606.118 42.9504C606.067 43.077 606.042 43.2097 605.963 43.3277C605.354 44.2419 604.122 44.4874 603.211 43.8775C602.299 43.2662 602.053 42.0325 602.661 41.1184C602.731 41.0126 602.833 40.9483 602.918 40.8613C602.843 40.6527 602.764 40.4362 602.674 40.2022C602.134 38.7708 601.344 36.9006 600.45 35.0774C599.57 33.2477 598.593 31.4673 597.776 30.175C597.605 29.8997 597.448 29.6585 597.296 29.4303C596.791 29.5383 596.246 29.4542 595.782 29.1443C594.87 28.5335 594.625 27.2986 595.233 26.383C595.776 25.5688 596.806 25.3218 597.672 25.7028C597.801 25.5478 597.924 25.4045 598.065 25.2291C599.031 24.0434 600.253 22.4208 601.38 20.733C602.519 19.0548 603.566 17.3155 604.277 15.9596C604.39 15.7481 604.491 15.5504 604.587 15.3606C604.074 14.7021 603.991 13.7785 604.478 13.0463C605.088 12.1307 606.321 11.8844 607.232 12.4943C607.654 12.7769 607.916 13.1991 608.034 13.6561C608.241 13.6953 608.456 13.7344 608.69 13.7727C610.196 14.032 612.209 14.2609 614.231 14.3827C616.251 14.5139 618.278 14.5268 619.804 14.4732C620.052 14.4659 620.281 14.4559 620.5 14.4443C620.549 14.3284 620.57 14.2059 620.643 14.0973C621.25 13.1839 622.481 12.9377 623.393 13.5475C624.305 14.1581 624.552 15.3939 623.944 16.3072C623.865 16.4253 623.752 16.4999 623.655 16.5956C623.726 16.8006 623.801 17.0135 623.887 17.2424C624.414 18.6802 625.236 20.5375 626.163 22.3441C627.072 24.1564 628.066 25.9281 628.87 27.2284C629.002 27.4435 629.118 27.6245 629.237 27.8121C629.689 27.7601 630.159 27.8368 630.566 28.1099C631.477 28.7205 631.723 29.9547 631.113 30.8703C630.641 31.5809 629.794 31.8728 629.011 31.6881C628.87 31.8605 628.735 32.0256 628.58 32.2234C627.633 33.4216 626.444 35.0664 625.32 36.7536C624.198 38.4456 623.145 40.1797 622.402 41.5154C622.306 41.6857 622.216 41.8493 622.131 42.0058C622.36 42.2543 622.531 42.5345 622.613 42.8511C622.824 42.891 623.044 42.9308 623.283 42.9699C624.815 43.235 626.869 43.4682 628.928 43.5921C630.988 43.7261 633.055 43.7384 634.609 43.6856C634.861 43.6775 635.095 43.6675 635.318 43.6559C635.368 43.5371 635.389 43.4117 635.463 43.3009C635.823 42.7606 636.399 42.481 636.999 42.4368C637.371 42.0666 637.951 41.4704 638.672 40.6535C639.878 39.3032 641.395 37.4358 642.831 35.5069C644.261 33.5751 645.607 31.5788 646.554 30.0351C646.924 29.4383 647.231 28.9124 647.471 28.488C647.371 28.07 647.428 27.6173 647.684 27.2312C647.74 27.1472 647.822 27.0958 647.89 27.0262C647.828 26.8553 647.77 26.6902 647.697 26.4982C647.263 25.35 646.629 23.8477 645.911 22.3868C645.204 20.9207 644.418 19.4908 643.765 18.4535C643.627 18.2326 643.501 18.0399 643.379 17.856C642.974 17.9429 642.538 17.8748 642.166 17.6248C641.435 17.1366 641.236 16.1451 641.725 15.412C642.161 14.7571 642.988 14.5601 643.682 14.8665C643.786 14.742 643.885 14.6267 643.999 14.4863C644.77 13.5337 645.751 12.2314 646.655 10.8791C647.568 9.53177 648.41 8.13657 648.978 7.04726C649.072 6.87191 649.147 6.72119 649.225 6.56409C648.816 6.03523 648.751 5.29572 649.141 4.70975C649.63 3.97662 650.619 3.77887 651.351 4.27005C651.688 4.49598 651.898 4.83288 651.993 5.19796C652.164 5.23045 652.328 5.26309 652.521 5.29498C653.727 5.50148 655.345 5.68617 656.966 5.78393C658.586 5.8897 660.213 5.89831 661.436 5.85781C661.632 5.85202 661.8 5.84253 661.973 5.83318C661.991 5.78675 662.023 5.74981 662.046 5.70575C662.064 5.65502 662.077 5.6028 662.108 5.55577C662.156 5.48264 662.217 5.42686 662.275 5.36589C662.299 5.33919 662.319 5.31085 662.345 5.28623C662.462 5.17689 662.593 5.08848 662.734 5.02336C662.819 4.98063 662.909 4.95749 663.003 4.93064C663.055 4.91759 663.107 4.9075 663.159 4.89874C663.25 4.88287 663.331 4.84519 663.426 4.84519C664.113 4.84519 664.681 5.29349 664.894 5.90928H664.906C665.074 6.36842 665.048 6.89075 664.757 7.32822C664.694 7.42168 664.605 7.48102 664.528 7.55712C664.587 7.72594 664.642 7.88883 664.712 8.07871C665.136 9.23181 665.795 10.7203 666.539 12.1698C667.269 13.6257 668.065 15.0461 668.712 16.0893C668.817 16.2624 668.91 16.4072 669.006 16.5579C669.368 16.5159 669.744 16.5783 670.07 16.7962C670.802 17.2859 670.999 18.2776 670.51 19.0106C670.131 19.5814 669.452 19.8153 668.824 19.6676C668.712 19.8058 668.603 19.9385 668.479 20.097C667.719 21.0576 666.764 22.378 665.862 23.7318C664.963 25.0879 664.116 26.4807 663.522 27.5513C663.423 27.7282 663.342 27.8795 663.258 28.0367C663.634 28.5619 663.677 29.2805 663.299 29.8491C662.81 30.5828 661.822 30.7798 661.091 30.2916C660.751 30.0634 660.54 29.7237 660.446 29.3564C660.276 29.3239 660.113 29.2906 659.921 29.2579C658.715 29.0471 657.099 28.8501 655.479 28.7415C653.857 28.6386 652.232 28.6191 651.006 28.6742C650.805 28.682 650.633 28.6936 650.455 28.7053C650.415 28.8052 650.395 28.9102 650.333 29.0037C650.047 29.4325 649.591 29.6519 649.115 29.6846C648.771 30.0424 648.362 30.477 647.879 31.0253C646.675 32.3763 645.152 34.2407 643.715 36.1682C642.282 38.0987 640.932 40.0914 639.988 41.6364C639.525 42.3832 639.161 43.022 638.906 43.4856C639.243 44.1238 639.254 44.9112 638.828 45.5529C638.747 45.6731 638.633 45.7492 638.534 45.8462C638.607 46.0557 638.684 46.2736 638.772 46.5083C639.309 47.9723 640.146 49.8664 641.091 51.7049C642.018 53.554 643.031 55.3599 643.851 56.6855C643.985 56.9049 644.103 57.089 644.225 57.2802C644.685 57.2265 645.163 57.3056 645.578 57.583C645.76 57.7054 645.895 57.8684 646.024 58.0328C646.873 58.1147 648.229 58.2356 649.933 58.3494C652.856 58.5391 656.755 58.6796 660.655 58.7165C664.556 58.7484 668.457 58.6738 671.383 58.5398C672.809 58.471 673.997 58.3936 674.847 58.332C675.309 57.893 675.97 57.7757 676.556 58.0343C676.66 57.9097 676.758 57.7944 676.873 57.6539C677.644 56.7014 678.625 55.399 679.529 54.0467C680.442 52.6994 681.284 51.3042 681.852 50.2149C681.946 50.0403 682.02 49.8888 682.099 49.7317C681.69 49.2029 681.625 48.4641 682.015 47.8774C682.504 47.1443 683.493 46.9465 684.225 47.4377C684.562 47.663 684.772 48.0005 684.867 48.3656C685.038 48.3982 685.201 48.4307 685.395 48.4626C686.601 48.6691 688.219 48.8538 689.839 48.9516C691.46 49.0574 693.087 49.0661 694.31 49.0255C694.514 49.0197 694.688 49.0096 694.868 49.0001C694.907 48.9074 694.924 48.8096 694.982 48.7234C695.471 47.9897 696.459 47.7927 697.19 48.2815C697.923 48.7712 698.118 49.7629 697.631 50.4959C697.568 50.5893 697.479 50.6488 697.402 50.7248C697.461 50.8936 697.516 51.0566 697.586 51.2464C698.01 52.3995 698.669 53.888 699.413 55.3375C700.143 56.7934 700.939 58.2139 701.586 59.257C701.691 59.4301 701.784 59.5749 701.88 59.7256C702.242 59.6836 702.618 59.7459 702.944 59.9638C703.676 60.4535 703.873 61.4452 703.384 62.1782C703.004 62.749 702.325 62.983 701.698 62.8352C701.586 62.9729 701.477 63.1061 701.352 63.2647C700.593 64.2252 699.638 65.5457 698.736 66.8995C697.837 68.2555 696.99 69.6485 696.396 70.719C696.297 70.8958 696.216 71.0471 696.132 71.2044C696.425 71.6137 696.493 72.1315 696.337 72.6147C696.718 73.515 697.333 74.9449 698.137 76.7239C699.528 79.7806 701.473 83.8096 703.513 87.7891C705.557 91.7657 707.693 95.6962 709.37 98.6044C709.511 98.8478 709.643 99.073 709.777 99.3019C710.228 99.1636 710.698 99.0672 711.195 99.0672C713.293 99.0672 715.066 100.404 715.753 102.268C716.275 102.317 716.82 102.366 717.409 102.411C721.138 102.718 726.11 102.914 731.083 102.917C736.054 102.909 741.026 102.702 744.755 102.401C745.345 102.356 745.891 102.308 746.414 102.259C747.104 100.399 748.875 99.0672 750.97 99.0672C753.662 99.0672 755.842 101.255 755.842 103.954C755.842 105.215 755.353 106.353 754.573 107.221C754.77 107.688 754.979 108.175 755.211 108.694C756.722 112.137 758.969 116.594 761.446 120.916C763.938 125.231 766.652 129.416 768.873 132.448C769.201 132.904 769.514 133.324 769.818 133.725C770.153 133.652 770.499 133.609 770.856 133.609C773.548 133.609 775.73 135.798 775.73 138.497C775.73 141.197 773.548 143.384 770.856 143.384C770.536 143.384 770.224 143.349 769.921 143.29C769.618 143.703 769.305 144.135 768.974 144.604C766.797 147.661 764.058 151.832 761.567 156.148C759.041 160.441 756.751 164.873 755.227 168.308C754.903 169.024 754.62 169.683 754.364 170.299C754.383 170.317 754.395 170.34 754.413 170.359C755.373 171.239 755.985 172.492 755.985 173.898C755.985 176.557 753.836 178.712 751.185 178.712C750.941 178.712 750.706 178.675 750.472 178.64C750.468 178.639 750.464 178.639 750.46 178.639C750.32 178.617 750.182 178.594 750.047 178.561C748.064 178.176 746.51 176.61 746.176 174.602C745.725 174.553 745.253 174.504 744.755 174.458C741.026 174.095 736.054 173.804 731.083 173.797C726.11 173.751 721.138 173.978 717.409 174.371ZM537.089 197.354C536.407 197.458 535.688 197.326 535.07 196.912C534.466 196.508 534.075 195.91 533.901 195.258C533.603 195.204 533.293 195.149 532.957 195.094C530.777 194.734 527.868 194.371 524.944 194.18C522.02 193.976 519.09 193.925 516.883 194.014C516.551 194.025 516.242 194.04 515.945 194.057C515.872 194.241 515.781 194.421 515.667 194.592C514.959 195.655 513.67 196.08 512.507 195.754C512.312 195.982 512.11 196.222 511.896 196.483C510.486 198.187 508.747 200.557 507.146 203.014C505.522 205.459 504.04 207.999 502.997 209.95C502.795 210.325 502.616 210.67 502.45 210.997C502.901 211.894 502.883 212.996 502.286 213.891C502.232 213.973 502.165 214.039 502.105 214.113C502.245 214.528 502.406 214.987 502.593 215.485C503.361 217.563 504.537 220.258 505.861 222.878C507.158 225.511 508.611 228.068 509.773 229.949C509.952 230.241 510.121 230.509 510.285 230.766C510.947 230.68 511.641 230.814 512.24 231.216C512.86 231.629 513.258 232.244 513.426 232.914C513.718 232.97 514.021 233.027 514.349 233.082C516.525 233.47 519.44 233.816 522.364 234.011C525.288 234.194 528.22 234.221 530.428 234.125C530.759 234.112 531.066 234.096 531.361 234.079C531.435 233.892 531.526 233.709 531.641 233.536C532.328 232.506 533.561 232.07 534.696 232.341C534.891 232.101 535.093 231.848 535.307 231.573C536.674 229.837 538.401 227.462 540.031 225.02C541.654 222.578 543.184 220.069 544.254 218.137C544.425 217.833 544.579 217.549 544.727 217.277C544.038 216.329 543.964 215.02 544.652 213.987C544.753 213.835 544.868 213.699 544.992 213.573C544.888 213.288 544.777 212.992 544.655 212.674C543.875 210.603 542.717 207.899 541.439 205.258C540.186 202.601 538.781 200.021 537.598 198.15C537.421 197.866 537.252 197.605 537.089 197.354ZM514.257 47.3841C513.763 46.2585 513.02 44.7989 512.205 43.3857C511.396 41.9667 510.504 40.5977 509.79 39.593C509.676 39.4293 509.573 39.2932 509.469 39.1504C509.105 39.217 508.717 39.1758 508.368 38.9715C508.014 38.7635 507.783 38.4348 507.668 38.0726C507.494 38.0494 507.33 38.0255 507.135 38.0045C505.915 37.8603 504.289 37.7778 502.659 37.7908C501.033 37.7851 499.406 37.856 498.181 37.964C497.974 37.9806 497.799 37.9987 497.617 38.0168C497.586 38.1052 497.577 38.1972 497.528 38.2811C497.181 38.8723 496.518 39.1439 495.88 39.0301C495.776 39.1743 495.674 39.3127 495.56 39.4786C494.858 40.4804 493.983 41.8515 493.165 43.2531C492.348 44.6547 491.585 46.0934 491.059 47.1937C490.971 47.3761 490.899 47.5326 490.823 47.6948C491.231 48.1975 491.319 48.9118 490.978 49.5006C490.922 49.597 490.835 49.6607 490.763 49.7403C490.831 49.9056 490.896 50.0649 490.978 50.2504C491.469 51.3818 492.2 52.8429 493.006 54.264C493.818 55.6815 494.702 57.0556 495.427 58.0531C495.542 58.2124 495.643 58.3449 495.747 58.4841C496.118 58.4102 496.517 58.4529 496.869 58.6615C497.213 58.8629 497.437 59.1788 497.558 59.5271C497.735 59.5489 497.905 59.5713 498.106 59.5916C499.325 59.722 500.954 59.8342 502.581 59.8509C504.211 59.8806 505.84 59.8241 507.06 59.7082C507.36 59.6821 507.635 59.6517 507.88 59.6213C507.902 59.5743 507.903 59.5235 507.929 59.4778C508.225 58.968 508.766 58.7122 509.316 58.718C509.443 58.5492 509.575 58.3753 509.718 58.174C510.434 57.181 511.336 55.8264 512.156 54.4269C512.988 53.0333 513.742 51.5926 514.248 50.4757C514.33 50.2953 514.395 50.1395 514.465 49.978C514.023 49.4739 513.913 48.7387 514.268 48.1309C514.323 48.0367 514.407 47.9759 514.476 47.8977C514.407 47.7317 514.341 47.5709 514.257 47.3841ZM540.336 22.3556C541.049 21.3755 541.707 20.3535 542.16 19.5553C542.233 19.4271 542.293 19.3163 542.355 19.2018C542.059 18.7969 542.027 18.2427 542.332 17.8147C542.379 17.7487 542.446 17.7082 542.504 17.6553C542.462 17.5271 542.424 17.4025 542.374 17.2584C542.081 16.3856 541.628 15.2526 541.116 14.1451C540.609 13.0362 540.035 11.9553 539.573 11.1608C539.499 11.0311 539.432 10.9231 539.364 10.8102C539.087 10.8356 538.801 10.7783 538.557 10.603C538.307 10.4241 538.156 10.1633 538.094 9.88588C537.967 9.85695 537.847 9.82876 537.703 9.79969C536.802 9.61069 535.597 9.43965 534.384 9.33758C533.171 9.22603 531.953 9.16877 531.035 9.16669C530.88 9.16521 530.749 9.16669 530.611 9.16802C530.581 9.23181 530.568 9.2999 530.526 9.35924C530.231 9.77357 529.717 9.93082 529.249 9.80265C529.162 9.90323 529.077 9.99966 528.98 10.1155C528.391 10.8145 527.648 11.7743 526.943 12.7616C526.241 13.7503 525.577 14.768 525.109 15.5524C525.031 15.6822 524.967 15.7936 524.899 15.9089C525.171 16.3109 525.188 16.8491 524.892 17.2635C524.844 17.3316 524.777 17.3721 524.717 17.4271C524.756 17.5547 524.794 17.6778 524.843 17.8211C525.132 18.6947 525.58 19.8312 526.082 20.9423C526.591 22.0514 527.16 23.1358 527.631 23.926C527.705 24.052 527.771 24.1564 527.839 24.2672C528.121 24.2368 528.415 24.2954 528.665 24.4736C528.908 24.6474 529.053 24.8981 529.119 25.1661C529.25 25.1944 529.375 25.2218 529.523 25.2508C530.425 25.4304 531.627 25.6216 532.84 25.7462C534.051 25.8781 535.267 25.9447 536.184 25.9412C536.409 25.9419 536.615 25.9375 536.799 25.9317C536.819 25.8977 536.823 25.8593 536.846 25.8267C537.101 25.4688 537.52 25.3153 537.931 25.3558C538.037 25.2385 538.145 25.1183 538.266 24.9786C538.866 24.2881 539.629 23.3421 540.336 22.3556ZM562.605 60.9882C563.962 59.1251 565.213 57.1868 566.068 55.6729C566.2 55.4432 566.32 55.2281 566.433 55.0202C565.865 54.2495 565.816 53.1804 566.398 52.3633C566.491 52.2321 566.597 52.1155 566.711 52.0105C566.64 51.7874 566.564 51.5564 566.479 51.3087C565.922 49.6536 565.061 47.5015 564.089 45.3972C563.124 43.2908 562.036 41.2387 561.159 39.7291C561.024 39.4967 560.897 39.2816 560.773 39.0766C560.245 39.1279 559.697 39.004 559.229 38.6701C558.75 38.3276 558.451 37.8321 558.334 37.2989C558.105 37.2476 557.866 37.1954 557.607 37.1432C555.9 36.7876 553.609 36.4602 551.303 36.2689C549.001 36.0546 546.689 35.9466 544.949 35.9401C544.681 35.9372 544.432 35.9378 544.193 35.9401C544.134 36.0669 544.067 36.1908 543.983 36.3081C543.419 37.0976 542.437 37.4062 541.548 37.1607C541.385 37.3497 541.226 37.5293 541.046 37.7459C539.926 39.0708 538.513 40.894 537.175 42.77C535.841 44.6482 534.58 46.5801 533.689 48.0701C533.548 48.304 533.42 48.5227 533.298 48.7322C533.817 49.4971 533.844 50.5278 533.279 51.3165C533.184 51.4506 533.075 51.5687 532.959 51.6751C533.029 51.8989 533.104 52.1308 533.188 52.3785C533.738 54.0372 534.583 56.1958 535.544 58.3044C536.51 60.4115 537.583 62.4694 538.48 63.9689C538.614 64.1971 538.742 64.4079 538.865 64.6084C539.405 64.5476 539.967 64.6707 540.445 65.0134C540.909 65.3459 541.202 65.8203 541.326 66.3331C541.562 66.3831 541.806 66.4346 542.072 66.4859C543.781 66.8271 546.071 67.1907 548.37 67.4261C550.67 67.6768 552.98 67.8035 554.724 67.7955C555.141 67.797 555.524 67.7897 555.868 67.7789C555.906 67.713 555.936 67.6442 555.981 67.5812C556.47 66.8937 557.276 66.5758 558.062 66.6612C558.258 66.4461 558.456 66.2266 558.678 65.9702C559.817 64.6592 561.266 62.8628 562.605 60.9882ZM604.266 102.242C604.003 101.818 603.751 101.428 603.506 101.055C602.488 101.208 601.414 101.012 600.49 100.394C599.587 99.7894 599.002 98.8963 598.743 97.9214C598.298 97.8402 597.835 97.7591 597.334 97.6779C594.08 97.1397 589.73 96.5965 585.362 96.3118C580.997 96.0068 576.618 95.9316 573.321 96.0663C572.825 96.0829 572.364 96.1053 571.92 96.1299C571.811 96.4038 571.675 96.6711 571.505 96.9268C570.449 98.5146 568.525 99.1513 566.786 98.6631C566.494 99.0049 566.192 99.3627 565.874 99.7524C563.765 102.298 561.169 105.837 558.775 109.509C556.351 113.162 554.136 116.956 552.577 119.871C552.276 120.429 552.008 120.943 551.76 121.43C552.437 122.77 552.41 124.418 551.52 125.755C551.438 125.878 551.337 125.979 551.245 126.091C551.454 126.71 551.696 127.395 551.975 128.137C553.119 131.244 554.878 135.265 556.853 139.182C558.795 143.114 560.964 146.934 562.702 149.745C562.969 150.18 563.222 150.582 563.467 150.966C564.458 150.837 565.494 151.036 566.39 151.636C567.313 152.254 567.906 153.173 568.156 154.175C568.593 154.26 569.049 154.344 569.54 154.428C572.789 155.004 577.143 155.522 581.51 155.811C585.878 156.086 590.26 156.127 593.557 155.983C594.051 155.964 594.51 155.94 594.951 155.914C595.061 155.635 595.198 155.362 595.371 155.102C596.395 153.563 598.234 152.915 599.93 153.319C600.221 152.958 600.523 152.581 600.844 152.169C602.884 149.578 605.465 146.03 607.9 142.383C610.324 138.733 612.612 134.987 614.21 132.098C614.465 131.643 614.696 131.22 614.915 130.813C613.888 129.397 613.778 127.442 614.802 125.902C614.954 125.674 615.127 125.471 615.311 125.282C615.155 124.856 614.99 124.413 614.808 123.938C613.642 120.845 611.914 116.807 610.004 112.859C608.131 108.889 606.033 105.037 604.266 102.242ZM648.817 26.551C649.182 26.5061 649.562 26.5691 649.892 26.7894C650.234 27.0176 650.444 27.3586 650.538 27.7274C650.708 27.7601 650.869 27.7925 651.061 27.8252C652.27 28.0388 653.883 28.2315 655.506 28.3402C657.125 28.4416 658.753 28.4576 659.978 28.4025C660.179 28.3953 660.35 28.383 660.528 28.3721C660.568 28.2729 660.588 28.1685 660.649 28.0757C661.028 27.5065 661.707 27.2719 662.335 27.4196C662.448 27.2805 662.556 27.1472 662.681 26.9878C663.438 26.0266 664.396 24.7083 665.299 23.3552C666.2 22.0006 667.049 20.6099 667.642 19.5379C667.741 19.3618 667.821 19.2098 667.906 19.0525C667.527 18.5281 667.482 17.8088 667.861 17.2381C667.915 17.1562 667.995 17.1077 668.06 17.0396C667.998 16.8687 667.938 16.7021 667.864 16.5094C667.431 15.3612 666.79 13.8626 666.081 12.3972C665.386 10.9239 664.608 9.49409 663.95 8.45611C663.848 8.29011 663.755 8.15333 663.66 8.0084C663.285 8.06269 662.89 7.99757 662.549 7.76941C662.454 7.70562 662.391 7.61646 662.316 7.5368L662.314 7.53472C662.193 7.40566 662.097 7.26517 662.027 7.10808C662.004 7.06238 661.983 7.01966 661.965 6.97189C661.951 6.93273 661.924 6.89802 661.913 6.85811C661.74 6.82622 661.574 6.79432 661.377 6.76258C660.17 6.56335 658.555 6.36189 656.936 6.25612C655.314 6.141 653.688 6.11415 652.464 6.16414C652.262 6.17067 652.091 6.18224 651.912 6.19248C651.873 6.29024 651.854 6.39304 651.793 6.48443C651.402 7.07114 650.695 7.29485 650.052 7.11817C649.938 7.25138 649.828 7.37896 649.703 7.5325C648.918 8.47628 647.955 9.79168 647.066 11.1535C646.167 12.5095 645.345 13.9184 644.765 14.9991C644.647 15.2164 644.548 15.4105 644.452 15.5989C644.696 16.0936 644.701 16.6919 644.373 17.1831C644.344 17.2273 644.298 17.2504 644.265 17.2902C644.344 17.5249 644.436 17.7857 644.543 18.0681C644.967 19.2191 645.621 20.7128 646.354 22.168C647.075 23.6276 647.877 25.0452 648.525 26.0882C648.629 26.2591 648.722 26.4018 648.817 26.551ZM624.619 36.2848C625.741 34.5965 626.799 32.8638 627.539 31.5266C627.658 31.3137 627.766 31.1152 627.869 30.9247C627.396 30.2698 627.339 29.3724 627.812 28.6619C627.88 28.5596 627.98 28.4981 628.062 28.4126C627.986 28.2041 627.905 27.9867 627.815 27.7528C627.276 26.3206 626.476 24.4533 625.593 22.625C624.726 20.791 623.756 19.0062 622.937 17.7147C622.808 17.5075 622.693 17.3366 622.575 17.1555C622.107 17.2243 621.614 17.1432 621.19 16.8592C620.775 16.5811 620.518 16.1667 620.397 15.7184C620.187 15.68 619.968 15.6416 619.73 15.6032C618.225 15.3534 616.213 15.1012 614.192 14.9694C612.173 14.8289 610.145 14.7941 608.62 14.8564C608.376 14.8644 608.149 14.876 607.931 14.8883C607.882 15.0114 607.858 15.1411 607.781 15.2562C607.295 15.9871 606.414 16.2652 605.613 16.0451C605.47 16.2117 605.332 16.3695 605.176 16.5608C604.2 17.7401 603 19.3764 601.892 21.0757C600.77 22.767 599.745 24.5208 599.023 25.8701C598.879 26.1382 598.751 26.3844 598.633 26.6163C598.936 27.2334 598.942 27.9802 598.535 28.593C598.498 28.6481 598.441 28.6777 598.4 28.7277C598.498 29.0197 598.613 29.3441 598.745 29.6954C599.274 31.1318 600.088 32.992 601.001 34.8058C601.901 36.6239 602.904 38.3919 603.708 39.6907C603.839 39.9045 603.955 40.0827 604.074 40.2688C604.529 40.2138 605.003 40.2912 605.414 40.5658C605.84 40.8505 606.105 41.2771 606.221 41.7385C606.426 41.7784 606.641 41.8182 606.872 41.8573C608.375 42.1239 610.389 42.3636 612.409 42.4968C614.43 42.6258 616.457 42.644 617.983 42.5773C618.228 42.5679 618.453 42.5563 618.67 42.5433C618.72 42.4179 618.745 42.2868 618.823 42.1702C619.295 41.4604 620.141 41.1671 620.924 41.3503C621.063 41.1779 621.198 41.012 621.353 40.8136C622.299 39.614 623.491 37.9718 624.619 36.2848ZM642.774 57.2187C642.225 55.7598 641.411 53.8562 640.509 51.9939C639.626 50.1229 638.636 48.3048 637.803 46.9887C637.672 46.7779 637.555 46.6025 637.433 46.4178C636.957 46.4874 636.455 46.4048 636.022 46.115C635.6 45.8318 635.338 45.4102 635.215 44.9539C635 44.9148 634.777 44.8757 634.535 44.8366C633 44.5816 630.948 44.3252 628.889 44.1911C626.831 44.0471 624.766 44.0115 623.212 44.0745C622.961 44.0833 622.729 44.0948 622.507 44.1072C622.456 44.2325 622.432 44.3635 622.355 44.4801C621.858 45.2263 620.962 45.511 620.146 45.2871C620 45.4567 619.859 45.6188 619.699 45.8145C618.705 47.014 617.48 48.6835 616.351 50.4147C615.209 52.1381 614.166 53.9257 613.429 55.2998C613.282 55.5729 613.152 55.8242 613.032 56.0611C613.341 56.6898 613.348 57.4519 612.931 58.077C612.894 58.1335 612.836 58.1632 612.794 58.2139C612.894 58.5109 613.011 58.8419 613.146 59.1997C613.685 60.6643 614.516 62.5599 615.446 64.4071C616.362 66.2615 617.383 68.0628 618.204 69.3885C618.337 69.6058 618.455 69.7875 618.576 69.9772C619.04 69.9201 619.523 69.9991 619.942 70.2794C620.376 70.5699 620.645 71.0044 620.764 71.4745C620.973 71.5152 621.192 71.5564 621.428 71.5963C622.961 71.8687 625.013 72.112 627.073 72.2474C629.133 72.3785 631.199 72.3981 632.754 72.3286C633.003 72.3199 633.233 72.3075 633.454 72.2938C633.505 72.167 633.531 72.033 633.61 71.9142C634.091 71.1898 634.953 70.8928 635.75 71.0798C635.893 70.9044 636.032 70.735 636.19 70.533C637.153 69.3088 638.37 67.6369 639.516 65.9173C640.66 64.1956 641.739 62.4296 642.492 61.0671C642.615 60.849 642.724 60.6462 642.83 60.4514C642.348 59.7843 642.29 58.8701 642.773 58.1451C642.842 58.0415 642.943 57.9785 643.026 57.8916C642.949 57.6793 642.867 57.4576 642.774 57.2187ZM698.173 66.5228C699.074 65.1683 699.923 63.7775 700.516 62.7056C700.615 62.5295 700.695 62.3774 700.78 62.2209C700.401 61.695 700.356 60.9766 700.735 60.4057C700.789 60.3239 700.869 60.2753 700.934 60.2073C700.872 60.0364 700.812 59.8698 700.738 59.6771C700.305 58.529 699.664 57.0303 698.955 55.5649C698.26 54.0917 697.482 52.6617 696.824 51.6238C696.722 51.4579 696.629 51.321 696.534 51.176C696.159 51.2311 695.764 51.166 695.423 50.9371C695.091 50.7154 694.885 50.3836 694.787 50.0258C694.614 49.9939 694.448 49.9621 694.251 49.9302C693.044 49.731 691.429 49.5297 689.81 49.4239C688.188 49.3087 686.562 49.2819 685.338 49.3319C685.136 49.3385 684.965 49.35 684.786 49.3601C684.746 49.4579 684.728 49.5608 684.667 49.6521C684.276 50.2388 683.569 50.4626 682.926 50.2858C682.812 50.4199 682.702 50.5466 682.577 50.7001C681.792 51.6441 680.829 52.9595 679.939 54.3211C679.041 55.6772 678.219 57.086 677.639 58.1667C677.521 58.3841 677.422 58.5783 677.326 58.7665C677.57 59.2612 677.575 59.8595 677.247 60.3507C677.218 60.3949 677.172 60.4181 677.139 60.458C677.218 60.6927 677.31 60.9533 677.416 61.2359C677.841 62.3868 678.495 63.8805 679.228 65.3356C679.949 66.7952 680.751 68.2128 681.398 69.2558C681.503 69.4269 681.596 69.5694 681.691 69.7187C682.056 69.6739 682.437 69.7368 682.766 69.9571C683.108 70.1852 683.318 70.5264 683.412 70.8943C683.582 70.9277 683.743 70.9602 683.935 70.9928C685.144 71.2066 686.757 71.3992 688.38 71.5079C689.999 71.6092 691.627 71.6252 692.851 71.5702C693.053 71.5629 693.224 71.5506 693.402 71.5398C693.442 71.4405 693.462 71.3363 693.523 71.2435C693.902 70.6742 694.581 70.4395 695.209 70.5872C695.322 70.4481 695.43 70.3149 695.555 70.1556C696.312 69.1943 697.27 67.8759 698.173 66.5228ZM746.74 171.412C747.577 169.925 749.147 168.911 750.97 168.911C751.137 168.911 751.295 168.943 751.459 168.96C751.911 168.371 752.404 167.71 752.927 166.977C755.132 163.934 757.813 159.73 760.258 155.388C762.739 151.068 764.972 146.604 766.525 143.185C766.767 142.656 766.985 142.163 767.192 141.69C766.448 140.831 765.982 139.724 765.982 138.497C765.982 137.232 766.474 136.09 767.26 135.222C767.063 134.755 766.856 134.268 766.625 133.751C765.117 130.306 762.86 125.855 760.378 121.534C757.884 117.221 755.16 113.041 752.943 110.006C752.614 109.551 752.302 109.131 751.999 108.729C751.667 108.801 751.324 108.843 750.97 108.843C748.875 108.843 747.103 107.509 746.414 105.649C745.891 105.599 745.345 105.552 744.755 105.507C741.026 105.207 736.054 104.998 731.083 104.991C726.11 104.994 721.138 105.189 717.409 105.497C716.82 105.542 716.275 105.59 715.753 105.639C715.066 107.505 713.293 108.843 711.195 108.843C710.885 108.843 710.584 108.807 710.29 108.752C709.987 109.168 709.673 109.603 709.341 110.076C707.161 113.133 704.445 117.318 701.929 121.616C699.37 125.894 697.062 130.314 695.544 133.752C695.31 134.268 695.101 134.753 694.904 135.22C695.691 136.088 696.184 137.231 696.184 138.497C696.184 139.734 695.71 140.85 694.955 141.71C695.159 142.183 695.375 142.674 695.614 143.199C697.16 146.624 699.391 151.089 701.875 155.407C704.341 159.737 707.034 163.934 709.239 166.975C709.567 167.434 709.879 167.857 710.181 168.261C710.508 168.191 710.847 168.152 711.195 168.152C713.357 168.152 715.171 169.575 715.807 171.531C716.314 171.592 716.841 171.652 717.409 171.708C721.138 172.101 726.11 172.328 731.083 172.282C736.054 172.275 741.026 171.982 744.755 171.621C745.471 171.554 746.124 171.484 746.74 171.412Z" fill="#F2F7FF"/>
<path d="M101.371 234.321C101.426 234.89 101.487 235.417 101.548 235.922C103.504 236.559 104.926 238.373 104.926 240.536C104.926 243.229 102.74 245.409 100.039 245.409C98.7841 245.409 97.6512 244.924 96.7856 244.148C96.3162 244.348 95.8287 244.56 95.3079 244.795C91.873 246.317 87.4357 248.597 83.1287 251.103C78.8115 253.589 74.6408 256.33 71.5884 258.514C71.1241 258.843 70.6959 259.156 70.2874 259.458C70.3497 259.77 70.3844 260.092 70.3844 260.422C70.3844 263.114 68.1969 265.297 65.4965 265.297C62.7976 265.297 60.6086 263.114 60.6086 260.422C60.6086 260.065 60.6528 259.718 60.7259 259.382C60.3239 259.08 59.9031 258.769 59.4468 258.442C56.4074 256.233 52.1932 253.571 47.834 251.157C43.498 248.701 39.0476 246.446 35.6273 244.896C35.0956 244.65 34.6001 244.429 34.1227 244.219C33.2672 244.951 32.1692 245.408 30.9537 245.408C29.3739 245.408 27.9846 244.649 27.0915 243.49C26.8509 243.598 26.6134 243.703 26.3584 243.819C23.3002 245.207 19.2742 247.157 15.2954 249.199C11.3194 251.246 7.39209 253.386 4.48227 255.062C2.79526 256.037 1.464 256.84 0.630291 257.35C0.586079 257.492 0.546177 257.636 0.459248 257.766C0.231091 258.105 -0.108631 258.316 -0.475933 258.411C-0.508426 258.581 -0.541797 258.743 -0.574436 258.935C-0.785236 260.142 -0.982243 261.757 -1.09083 263.378C-1.19364 264.999 -1.21322 266.624 -1.15818 267.85C-1.15017 268.052 -1.1386 268.224 -1.12703 268.401C-1.02704 268.442 -0.922016 268.461 -0.828556 268.523C-0.0948298 269.012 0.103656 269.999 -0.386776 270.733C-0.874989 271.462 -1.86669 271.66 -2.60115 271.173C-2.68512 271.116 -2.73659 271.035 -2.80676 270.967C-2.97706 271.028 -3.14218 271.086 -3.33414 271.16C-4.4822 271.594 -5.98451 272.227 -7.44558 272.946C-8.91169 273.652 -10.3415 274.438 -11.3788 275.092C-11.5997 275.229 -11.7932 275.356 -11.9764 275.478C-11.8902 275.882 -11.9583 276.318 -12.2075 276.69C-12.2987 276.827 -12.4219 276.926 -12.5435 277.025C-12.6189 277.865 -12.7131 279.001 -12.8036 280.363C-12.9912 283.286 -13.1375 287.185 -13.1767 291.085C-13.2106 294.985 -13.1418 298.886 -13.0056 301.812C-12.9289 303.387 -12.842 304.665 -12.7767 305.523C-12.7204 305.553 -12.658 305.557 -12.6043 305.593C-11.8794 306.076 -11.5816 306.938 -11.7699 307.736C-11.594 307.879 -11.4244 308.018 -11.2216 308.177C-10.0025 309.141 -8.32498 310.354 -6.6046 311.5C-4.8814 312.642 -3.11325 313.716 -1.75217 314.472C-1.53483 314.595 -1.33204 314.705 -1.13727 314.81C-0.47 314.331 0.441888 314.275 1.16627 314.756C2.09699 315.377 2.35052 316.632 1.72835 317.563C1.43937 317.995 1.0062 318.262 0.538164 318.382C0.497667 318.592 0.457162 318.811 0.417261 319.048C0.147119 320.58 -0.100615 322.632 -0.239768 324.692C-0.37091 326.75 -0.396873 328.815 -0.324477 330.371C-0.315131 330.621 -0.302817 330.852 -0.289024 331.073C-0.161445 331.125 -0.0267478 331.15 0.09208 331.23C0.798211 331.7 1.109 332.532 0.950417 333.313L20.6607 345.964C22.071 344.436 24.4156 344.103 26.2026 345.293C26.4649 345.467 26.6974 345.668 26.9082 345.885C27.3262 345.739 27.7607 345.585 28.2243 345.411C31.3297 344.273 35.3447 342.495 39.2468 340.492C43.1677 338.528 46.9981 336.38 49.8072 334.639C50.2467 334.372 50.651 334.118 51.0377 333.872C50.9183 332.89 51.1181 331.864 51.7121 330.977C53.0312 329.007 55.7004 328.475 57.6779 329.791C59.2193 330.817 59.8676 332.659 59.4598 334.356C59.8199 334.647 60.1958 334.948 60.6064 335.269C63.1939 337.315 66.7497 339.886 70.3974 342.318C74.0503 344.741 77.8017 347.018 80.6869 348.62C81.1425 348.876 81.5662 349.107 81.974 349.327C83.3888 348.306 85.3394 348.199 86.8772 349.222C88.8546 350.538 89.387 353.201 88.0687 355.17C87.4523 356.091 86.5374 356.684 85.5394 356.935C85.4553 357.374 85.3713 357.83 85.2879 358.323C84.7158 361.574 84.1891 365.926 83.8951 370.293C83.6155 374.658 83.5655 379.04 83.7147 382.34C83.7335 382.833 83.7574 383.292 83.7835 383.734C84.066 383.844 84.3413 383.981 84.6042 384.156C86.3304 385.305 86.954 387.483 86.2043 389.328C86.9757 389.919 87.8508 390.584 88.8307 391.317C90.6409 392.644 92.7263 394.231 95.0088 395.862C97.2803 397.509 99.7323 399.224 102.182 400.942C104.646 402.642 107.109 404.34 109.442 405.899C111.77 407.465 113.978 408.876 115.853 410.112C117.459 411.168 118.846 412.017 119.911 412.685C120.851 412.056 122.115 412.014 123.115 412.679C123.29 412.796 123.446 412.93 123.587 413.076C123.867 412.978 124.158 412.874 124.468 412.758C126.548 411.995 129.236 410.806 131.849 409.466C134.471 408.149 137.036 406.712 138.917 405.547C139.211 405.368 139.481 405.199 139.74 405.035C139.66 404.377 139.794 403.691 140.192 403.097C141.075 401.776 142.862 401.421 144.186 402.301C145.216 402.987 145.65 404.219 145.378 405.356C145.619 405.55 145.87 405.753 146.146 405.967C147.878 407.337 150.259 409.059 152.7 410.685C155.145 412.308 157.656 413.833 159.588 414.906C159.893 415.077 160.177 415.232 160.45 415.38C161.398 414.696 162.704 414.623 163.733 415.308C165.056 416.189 165.414 417.973 164.53 419.292C164.118 419.909 163.505 420.304 162.837 420.473C162.78 420.767 162.725 421.073 162.669 421.404C162.285 423.579 161.932 426.492 161.736 429.416C161.548 432.337 161.514 435.269 161.615 437.477C161.627 437.808 161.644 438.115 161.661 438.41C161.85 438.485 162.034 438.576 162.209 438.693C163.531 439.571 163.889 441.354 163.006 442.677C162.124 443.995 160.335 444.35 159.012 443.469C158.855 443.365 158.713 443.245 158.584 443.118C158.3 443.22 158.005 443.327 157.688 443.449C155.618 444.232 152.909 445.376 150.273 446.67C147.628 447.944 145.053 449.36 143.179 450.539C142.786 450.783 142.432 451.013 142.105 451.23C142.263 451.96 142.138 452.752 141.688 453.425C140.805 454.746 139.017 455.098 137.695 454.22C136.505 453.428 136.106 451.911 136.675 450.655C136.469 450.484 136.253 450.305 136.023 450.12C134.308 448.724 131.959 446.956 129.518 445.324C127.092 443.677 124.574 442.16 122.612 441.135C122.315 440.976 122.036 440.833 121.767 440.697C120.814 441.445 119.458 441.548 118.394 440.84C117.072 439.959 116.715 438.179 117.599 436.856C118.009 436.243 118.618 435.847 119.283 435.68C119.338 435.385 119.394 435.079 119.448 434.749C119.822 432.571 120.154 429.655 120.331 426.734C120.52 423.808 120.536 420.875 120.462 418.668C120.452 418.333 120.439 418.022 120.424 417.723C120.25 417.652 120.081 417.564 119.919 417.456C118.886 416.768 118.452 415.531 118.728 414.393C117.73 413.627 116.45 412.62 114.897 411.477C113.087 410.149 110.997 408.569 108.719 406.932C106.447 405.286 103.998 403.566 101.549 401.848C99.0861 400.147 96.6255 398.445 94.2917 396.888C91.9687 395.314 89.7551 393.91 87.8812 392.675C86.8475 392.006 85.916 391.414 85.0902 390.895C83.6625 392.182 81.5011 392.405 79.8286 391.29C79.5932 391.134 79.3816 390.956 79.1874 390.765C78.763 390.918 78.3218 391.08 77.8489 391.261C74.7574 392.431 70.7097 394.137 66.7714 396.069C62.82 397.971 58.9731 400.088 56.1763 401.851C55.5888 402.216 55.0594 402.559 54.5704 402.883C54.8044 403.976 54.6175 405.158 53.9453 406.161C52.6277 408.131 49.9577 408.662 47.9803 407.347C46.2049 406.164 45.6081 403.901 46.457 402.023C46.1498 401.767 45.8267 401.5 45.4834 401.223C42.9228 399.138 39.4163 396.496 35.7678 394.061C32.1417 391.601 28.3808 389.336 25.4508 387.8C25.0068 387.563 24.5903 387.35 24.189 387.148C22.7656 388.265 20.7396 388.419 19.1511 387.361C18.6528 387.03 18.2471 386.611 17.9393 386.141C17.8951 386.156 17.856 386.169 17.8111 386.183C15.3288 387.009 12.0569 388.207 8.82557 389.503C5.59561 390.804 2.40481 392.201 0.0428296 393.326C-0.683031 393.674 -1.31974 393.989 -1.86952 394.265C-1.92529 394.597 -2.04694 394.922 -2.25626 395.215C-2.62786 395.734 -3.17764 396.049 -3.76153 396.139C-3.83184 396.441 -3.9035 396.766 -3.97515 397.124C-4.33089 398.832 -4.66481 401.123 -4.87635 403.427C-5.10377 405.727 -5.20005 408.039 -5.2045 409.781C-5.20658 410.048 -5.2051 410.296 -5.20302 410.534C-5.07262 410.593 -4.94579 410.664 -4.82489 410.75C-3.8093 411.473 -3.57759 412.889 -4.30775 413.908C-5.03924 414.928 -6.4561 415.168 -7.47169 414.444C-7.60639 414.348 -7.72447 414.238 -7.83099 414.121C-8.0547 414.191 -8.28656 414.265 -8.5343 414.349C-10.193 414.897 -12.3501 415.748 -14.4579 416.707C-16.5645 417.673 -18.6186 418.754 -20.1209 419.65C-20.3491 419.783 -20.5592 419.91 -20.7606 420.034C-20.7005 420.572 -20.8244 421.134 -21.1655 421.612C-21.4719 422.038 -21.9007 422.318 -22.3672 422.458L-22.93 434.986C-22.5599 435.366 -22.4034 435.888 -22.515 436.405C-22.3758 436.512 -22.2426 436.616 -22.0818 436.731C-21.0966 437.456 -19.7312 438.341 -18.321 439.147C-16.918 439.964 -15.4663 440.701 -14.3551 441.212C-14.1908 441.289 -14.0509 441.35 -13.9024 441.416C-13.4084 440.837 -12.5769 440.648 -11.8996 441.045C-11.1405 441.487 -10.8877 442.464 -11.3354 443.226C-11.5635 443.612 -11.9294 443.866 -12.3327 443.967C-12.3624 444.186 -12.3936 444.415 -12.4211 444.674C-12.5631 445.893 -12.6536 447.523 -12.653 449.149C-12.6653 450.779 -12.5877 452.405 -12.4812 453.625C-12.4639 453.833 -12.445 454.008 -12.4262 454.19C-12.335 454.223 -12.2393 454.233 -12.1523 454.283C-11.394 454.726 -11.1419 455.702 -11.5897 456.465C-12.0372 457.225 -13.0159 457.485 -13.7764 457.043C-13.8735 456.986 -13.9372 456.9 -14.0177 456.827C-14.1828 456.897 -14.3428 456.96 -14.5283 457.043C-15.659 457.531 -17.1193 458.268 -18.5397 459.071C-19.9551 459.886 -21.3285 460.773 -22.3281 461.498C-22.4874 461.612 -22.6193 461.712 -22.7584 461.816C-22.6845 462.188 -22.7273 462.586 -22.9351 462.94C-23.3834 463.7 -24.3635 463.957 -25.1226 463.515C-25.7116 463.169 -25.9839 462.505 -25.8709 461.868C-26.0151 461.764 -26.1541 461.663 -26.3199 461.547C-27.3225 460.851 -28.6915 459.975 -30.0909 459.155C-31.4947 458.334 -32.9312 457.569 -34.0335 457.043C-34.2154 456.953 -34.3712 456.882 -34.5327 456.807C-35.0361 457.217 -35.7518 457.307 -36.3406 456.962C-37.1012 456.517 -37.3526 455.54 -36.9049 454.78C-36.705 454.439 -36.3914 454.218 -36.0473 454.097C-36.0255 453.919 -36.0046 453.746 -35.9843 453.544C-35.8524 452.325 -35.7496 450.698 -35.722 449.068C-35.6808 447.442 -35.73 445.812 -35.8488 444.59C-35.8669 444.389 -35.8879 444.217 -35.9089 444.041C-36.0111 444.006 -36.1168 443.993 -36.2132 443.937C-36.973 443.492 -37.2251 442.518 -36.7775 441.753C-36.3283 440.993 -35.3491 440.733 -34.5913 441.178C-34.5023 441.23 -34.445 441.311 -34.3697 441.376C-34.2031 441.305 -34.0408 441.237 -33.8525 441.152C-32.7297 440.652 -31.2643 439.927 -29.8461 439.115C-28.4242 438.315 -27.0436 437.436 -26.0433 436.717C-25.8824 436.603 -25.7485 436.502 -25.608 436.396C-25.6804 436.028 -25.6377 435.632 -25.4312 435.281C-25.1937 434.878 -24.804 434.626 -24.3787 434.535L-23.8341 422.405C-24.005 422.338 -24.173 422.257 -24.3294 422.146C-25.1191 421.584 -25.4269 420.605 -25.1849 419.716C-25.3739 419.552 -25.5543 419.394 -25.7716 419.213C-27.098 418.097 -28.9182 416.68 -30.7921 415.34C-32.6681 414.004 -34.5978 412.738 -36.0893 411.851C-36.324 411.709 -36.5428 411.581 -36.7535 411.459C-37.5177 411.979 -38.5492 412.007 -39.3417 411.443C-39.4286 411.381 -39.5025 411.307 -39.5778 411.235L-45.345 414.244C-45.3827 414.367 -45.4276 414.49 -45.5073 414.602C-45.7029 414.875 -45.9919 415.039 -46.299 415.087C-46.3367 415.248 -46.3751 415.416 -46.4128 415.607C-46.6003 416.506 -46.7764 417.713 -46.8857 418.924C-47.0068 420.138 -47.0568 421.355 -47.0603 422.273C-47.0618 422.428 -47.0588 422.558 -47.0574 422.694C-46.9907 422.724 -46.9206 422.739 -46.859 422.782C-46.3251 423.166 -46.2035 423.909 -46.588 424.446C-46.9741 424.984 -47.7187 425.111 -48.2548 424.729C-48.3236 424.68 -48.3649 424.612 -48.4199 424.552C-48.5468 424.592 -48.6699 424.63 -48.8126 424.677C-49.6868 424.969 -50.8233 425.414 -51.9344 425.92C-53.0427 426.431 -54.1242 427 -54.9151 427.468C-55.042 427.543 -55.147 427.61 -55.2578 427.678C-55.2274 427.959 -55.2868 428.253 -55.4649 428.503C-55.8503 429.04 -56.5949 429.167 -57.1317 428.786C-57.5474 428.49 -57.7039 427.975 -57.5765 427.509C-57.6778 427.422 -57.7742 427.337 -57.8908 427.24C-58.5891 426.654 -59.5467 425.905 -60.5332 425.2C-61.5227 424.495 -62.539 423.831 -63.322 423.363C-63.4516 423.285 -63.5639 423.221 -63.679 423.155C-64.0811 423.426 -64.6193 423.445 -65.0366 423.149C-65.5711 422.768 -65.6914 422.022 -65.3074 421.485C-65.1358 421.245 -64.8873 421.1 -64.6222 421.034C-64.5946 420.902 -64.5672 420.775 -64.5381 420.627C-64.3592 419.728 -64.1724 418.522 -64.042 417.311C-63.9007 416.102 -63.8298 414.885 -63.8341 413.967C-63.8341 413.816 -63.8385 413.688 -63.8421 413.554C-63.916 413.522 -63.9941 413.504 -64.063 413.456C-64.5976 413.074 -64.7207 412.329 -64.3338 411.792C-63.9486 411.255 -63.2031 411.127 -62.6687 411.51C-62.6056 411.554 -62.5679 411.619 -62.5164 411.673C-62.3883 411.631 -62.2637 411.592 -62.1189 411.541C-61.2482 411.243 -60.1095 410.802 -59.0005 410.294C-57.8879 409.793 -56.8029 409.232 -56.0096 408.766C-55.8822 408.692 -55.7757 408.625 -55.6641 408.557C-55.6931 408.276 -55.6352 407.984 -55.4576 407.735C-55.0731 407.198 -54.3269 407.072 -53.7925 407.453C-53.3651 407.759 -53.2151 408.292 -53.3636 408.769C-53.2673 408.858 -53.1746 408.944 -53.063 409.041C-52.3792 409.649 -51.4231 410.399 -50.4293 411.094C-49.4405 411.797 -48.4106 412.444 -47.6174 412.899C-47.5 412.967 -47.4008 413.022 -47.2943 413.081C-46.9206 412.714 -46.3656 412.63 -45.9043 412.883L-40.2565 409.936C-40.3383 409.376 -40.2138 408.783 -39.856 408.284C-39.5264 407.825 -39.0563 407.533 -38.5485 407.407C-38.4985 407.17 -38.4477 406.924 -38.3964 406.656C-38.056 404.947 -37.701 402.658 -37.454 400.358C-37.1859 398.061 -37.0484 395.752 -37.0607 394.009C-37.0599 393.748 -37.0643 393.505 -37.0693 393.272C-37.2157 393.209 -37.3577 393.132 -37.4924 393.036C-38.5065 392.313 -38.7404 390.897 -38.0095 389.878C-37.2786 388.858 -35.8619 388.619 -34.8471 389.343C-34.7224 389.432 -34.6109 389.531 -34.5102 389.639C-34.285 389.565 -34.051 389.488 -33.8003 389.4C-32.1503 388.835 -29.9859 387.996 -27.8788 387.035C-25.7658 386.081 -23.705 385.017 -22.2006 384.129C-21.971 383.995 -21.7594 383.868 -21.5574 383.745C-21.6154 383.209 -21.4915 382.649 -21.1518 382.175C-20.4202 381.154 -19.0055 380.915 -17.9899 381.639C-17.1743 382.22 -16.8745 383.243 -17.1613 384.153C-16.9824 384.317 -16.8128 384.475 -16.6072 384.655C-15.3041 385.809 -13.4903 387.232 -11.602 388.551C-9.7236 389.886 -7.76942 391.113 -6.26132 391.982C-6.06135 392.098 -5.87088 392.206 -5.68752 392.309C-4.91538 391.537 -3.68335 391.405 -2.77206 392.055C-2.63305 392.154 -2.512 392.268 -2.40267 392.39C-1.8615 392.222 -1.25016 392.028 -0.572962 391.805C1.91081 390.981 5.18053 389.778 8.41123 388.479C11.6403 387.176 14.8289 385.775 17.1917 384.652C17.2352 384.631 17.2729 384.612 17.3156 384.592C17.1136 383.526 17.3091 382.385 17.9603 381.412C18.5739 380.496 19.4828 379.906 20.4753 379.653C20.5579 379.212 20.6411 378.753 20.7223 378.258C21.2829 375.006 21.7791 370.654 22.0414 366.285C22.3274 361.918 22.3512 357.535 22.2384 354.24C22.2231 353.739 22.2035 353.274 22.1811 352.827C21.9218 352.721 21.669 352.59 21.4271 352.429C19.6806 351.265 19.0657 349.05 19.8581 347.189L0.146378 334.538C-0.520736 335.019 -1.43426 335.077 -2.15923 334.593C-2.26649 334.522 -2.33161 334.418 -2.42002 334.332C-2.63231 334.408 -2.8532 334.489 -3.09071 334.58C-4.54896 335.13 -6.45759 335.936 -8.314 336.848C-10.1778 337.743 -11.9923 338.742 -13.3106 339.572C-13.591 339.746 -13.8365 339.907 -14.0697 340.062C-13.9596 340.577 -14.0451 341.133 -14.3609 341.605C-14.9832 342.534 -16.2429 342.784 -17.1743 342.163C-18.0052 341.61 -18.2573 340.562 -17.869 339.68C-18.0269 339.548 -18.1739 339.423 -18.3528 339.278C-19.5611 338.293 -21.2147 337.048 -22.9336 335.899C-24.6445 334.741 -26.4184 333.671 -27.7983 332.947C-27.9983 332.841 -28.186 332.744 -28.367 332.653C-28.6197 332.897 -28.9095 333.079 -29.2383 333.163C-29.2775 333.369 -29.3173 333.584 -29.3564 333.816C-29.6223 335.32 -29.865 337.334 -30.0011 339.354C-30.1308 341.374 -30.1532 343.402 -30.0844 344.927C-30.075 345.171 -30.0627 345.397 -30.0497 345.613C-29.923 345.663 -29.7903 345.689 -29.6723 345.767C-28.7581 346.376 -28.5126 347.609 -29.1225 348.52C-29.7338 349.432 -30.9675 349.677 -31.8816 349.069C-31.9874 348.999 -32.0518 348.897 -32.1387 348.812C-32.3473 348.887 -32.5638 348.967 -32.7978 349.056C-34.2292 349.596 -36.0994 350.386 -37.9226 351.281C-39.7523 352.161 -41.5328 353.138 -42.825 353.955C-43.1003 354.125 -43.3415 354.283 -43.5697 354.434C-43.4617 354.939 -43.5458 355.485 -43.8557 355.948C-44.4665 356.861 -45.7015 357.106 -46.6171 356.497C-47.4312 355.955 -47.6782 354.924 -47.2972 354.059C-47.4522 353.93 -47.5956 353.807 -47.7709 353.665C-48.9566 352.699 -50.5793 351.477 -52.267 350.35C-53.9452 349.211 -55.6845 348.165 -57.0404 347.453C-57.2519 347.341 -57.4496 347.24 -57.6394 347.143C-58.2979 347.657 -59.2215 347.739 -59.9537 347.253C-60.8693 346.643 -61.1156 345.41 -60.5057 344.498C-60.2231 344.076 -59.8009 343.814 -59.3439 343.697C-59.3047 343.489 -59.2656 343.274 -59.2273 343.041C-58.968 341.534 -58.7391 339.522 -58.6173 337.5C-58.4862 335.48 -58.4732 333.452 -58.5268 331.927C-58.5341 331.678 -58.5442 331.45 -58.5557 331.23C-58.6716 331.182 -58.7941 331.16 -58.9027 331.088C-59.8161 330.48 -60.0623 329.25 -59.4525 328.337C-58.8419 327.425 -57.6062 327.179 -56.6928 327.787C-56.5747 327.866 -56.5001 327.978 -56.4044 328.076C-56.1994 328.004 -55.9865 327.929 -55.7576 327.843C-54.3198 327.317 -52.4625 326.494 -50.6559 325.568C-48.8436 324.659 -47.0719 323.665 -45.7716 322.86C-45.5565 322.729 -45.3755 322.612 -45.1879 322.493C-45.2399 322.042 -45.1633 321.571 -44.8901 321.164C-44.2796 320.253 -43.0453 320.008 -42.1297 320.617C-41.4191 321.09 -41.1272 321.936 -41.3119 322.72C-41.1395 322.86 -40.9744 322.996 -40.7766 323.15C-39.5784 324.097 -37.9336 325.286 -36.2464 326.41C-34.5544 327.532 -32.8203 328.586 -31.4846 329.328C-31.3143 329.424 -31.1507 329.514 -30.9942 329.599C-30.7457 329.371 -30.4655 329.199 -30.1489 329.117C-30.109 328.907 -30.0692 328.686 -30.0301 328.448C-29.765 326.915 -29.5318 324.862 -29.4079 322.802C-29.274 320.742 -29.2616 318.676 -29.3145 317.122C-29.3225 316.869 -29.3325 316.636 -29.3441 316.413C-29.4629 316.363 -29.5883 316.341 -29.6991 316.267C-30.2394 315.908 -30.519 315.331 -30.5632 314.731C-30.9334 314.36 -31.5296 313.78 -32.3465 313.058C-33.6968 311.853 -35.5642 310.335 -37.4931 308.9C-39.4249 307.469 -41.4212 306.123 -42.9649 305.176C-43.5617 304.806 -44.0876 304.499 -44.512 304.26C-44.93 304.359 -45.3827 304.302 -45.7688 304.047C-45.8528 303.99 -45.9042 303.909 -45.9738 303.841C-46.1447 303.902 -46.3098 303.96 -46.5018 304.034C-47.65 304.468 -49.1523 305.101 -50.6132 305.82C-52.0793 306.526 -53.5093 307.312 -54.5465 307.966C-54.7674 308.103 -54.9601 308.23 -55.144 308.352C-55.0571 308.756 -55.1252 309.192 -55.3752 309.564C-55.8634 310.295 -56.8549 310.494 -57.5881 310.005C-58.2429 309.569 -58.4399 308.742 -58.1335 308.048C-58.258 307.944 -58.3733 307.846 -58.5137 307.732C-59.4663 306.96 -60.7686 305.98 -62.1209 305.075C-63.4682 304.162 -64.8634 303.32 -65.9528 302.752C-66.1281 302.658 -66.2788 302.584 -66.4359 302.505C-66.9648 302.914 -67.7043 302.979 -68.2903 302.589C-69.0234 302.1 -69.2211 301.111 -68.73 300.379C-68.504 300.042 -68.1671 299.833 -67.802 299.737C-67.7696 299.566 -67.7369 299.403 -67.705 299.209C-67.4985 298.003 -67.3138 296.386 -67.2161 294.765C-67.1103 293.145 -67.1017 291.517 -67.1422 290.295C-67.148 290.098 -67.1575 289.93 -67.1668 289.758C-67.2133 289.739 -67.2502 289.707 -67.2943 289.684C-67.345 289.667 -67.3972 289.654 -67.4442 289.623C-67.5174 289.574 -67.5731 289.513 -67.6341 289.456C-67.6608 289.431 -67.6892 289.412 -67.7138 289.386C-67.8231 289.268 -67.9115 289.137 -67.9766 288.996C-68.0194 288.911 -68.0425 288.821 -68.0694 288.728C-68.0824 288.676 -68.0925 288.624 -68.1013 288.571C-68.1171 288.481 -68.1548 288.399 -68.1548 288.305C-68.1548 287.618 -67.7065 287.05 -67.0907 286.836L-67.0907 286.825C-66.6316 286.656 -66.1093 286.682 -65.6718 286.973C-65.5783 287.036 -65.519 287.125 -65.4429 287.202C-65.2741 287.144 -65.1112 287.089 -64.9213 287.018C-63.7682 286.594 -62.2797 285.935 -60.8302 285.191C-59.3743 284.461 -57.9539 283.666 -56.9107 283.019C-56.7376 282.913 -56.5928 282.821 -56.4421 282.725C-56.4841 282.363 -56.4218 281.986 -56.2038 281.66C-55.7141 280.928 -54.7224 280.732 -53.9895 281.22C-53.4186 281.6 -53.1847 282.279 -53.3324 282.907C-53.1942 283.019 -53.0615 283.128 -52.903 283.252C-51.9424 284.011 -50.622 284.967 -49.2682 285.868C-47.9121 286.767 -46.5193 287.614 -45.4487 288.208C-45.2718 288.307 -45.1205 288.388 -44.9633 288.473C-44.4381 288.097 -43.7195 288.053 -43.1509 288.432C-42.4172 288.921 -42.2202 289.908 -42.7084 290.64C-42.9366 290.979 -43.2763 291.19 -43.6436 291.285C-43.6761 291.455 -43.7094 291.617 -43.7421 291.809C-43.9529 293.015 -44.1499 294.631 -44.2585 296.251C-44.3614 297.873 -44.3809 299.498 -44.3258 300.724C-44.318 300.926 -44.3064 301.097 -44.2947 301.275C-44.1948 301.316 -44.0898 301.335 -43.9964 301.397C-43.5675 301.683 -43.3481 302.14 -43.3154 302.616C-42.9576 302.96 -42.523 303.368 -41.9747 303.852C-40.6237 305.056 -38.7593 306.578 -36.8318 308.015C-34.9013 309.448 -32.9086 310.798 -31.3636 311.743C-30.6168 312.206 -29.978 312.57 -29.5144 312.824C-28.8762 312.488 -28.0888 312.476 -27.4471 312.903C-27.3269 312.983 -27.2508 313.097 -27.1538 313.196C-26.9443 313.124 -26.7264 313.047 -26.4917 312.959C-25.0277 312.421 -23.1336 311.584 -21.2951 310.64C-19.446 309.713 -17.6401 308.7 -16.3145 307.879C-16.0951 307.746 -15.911 307.627 -15.7198 307.506C-15.7735 307.046 -15.6944 306.568 -15.417 306.153C-15.2946 305.97 -15.1316 305.835 -14.9672 305.706C-14.8853 304.858 -14.7644 303.501 -14.6506 301.797C-14.4609 298.874 -14.3204 294.975 -14.2835 291.075C-14.2516 287.175 -14.3262 283.274 -14.4602 280.348C-14.529 278.922 -14.6064 277.734 -14.668 276.883C-15.107 276.422 -15.2243 275.761 -14.9657 275.174C-15.0903 275.07 -15.2056 274.972 -15.3461 274.858C-16.2986 274.086 -17.601 273.106 -18.9533 272.201C-20.3006 271.288 -21.6958 270.446 -22.7851 269.878C-22.9597 269.784 -23.1112 269.71 -23.2683 269.631C-23.7971 270.04 -24.5359 270.105 -25.1226 269.715C-25.8557 269.226 -26.0535 268.237 -25.5623 267.506C-25.337 267.168 -24.9995 266.959 -24.6344 266.863C-24.6018 266.692 -24.5693 266.529 -24.5374 266.335C-24.3309 265.129 -24.1462 263.512 -24.0484 261.891C-23.9427 260.271 -23.9339 258.643 -23.9745 257.421C-23.9803 257.216 -23.9904 257.042 -23.9999 256.862C-24.0926 256.823 -24.1904 256.807 -24.2766 256.749C-25.0103 256.26 -25.2073 255.271 -24.7185 254.541C-24.2288 253.808 -23.2371 253.613 -22.5041 254.099C-22.4107 254.162 -22.3512 254.251 -22.2752 254.328C-22.1064 254.27 -21.9434 254.215 -21.7536 254.144C-20.6005 253.72 -19.112 253.062 -17.6625 252.317C-16.2067 251.587 -14.7861 250.792 -13.7431 250.145C-13.5699 250.039 -13.4251 249.947 -13.2744 249.851C-13.3164 249.489 -13.2541 249.113 -13.0362 248.786C-12.5465 248.054 -11.5548 247.858 -10.8218 248.346C-10.251 248.726 -10.017 249.405 -10.1648 250.033C-10.0271 250.145 -9.89389 250.254 -9.73531 250.378C-8.77476 251.137 -7.45433 252.093 -6.10051 252.994C-4.74447 253.894 -3.35149 254.74 -2.28102 255.335C-2.10419 255.434 -1.95288 255.514 -1.79563 255.599C-1.38634 255.306 -0.868465 255.238 -0.385296 255.394C0.515019 255.012 1.94494 254.397 3.72392 253.593C6.78061 252.203 10.8096 250.257 14.7891 248.218C18.7657 246.173 22.6962 244.038 25.6044 242.36C25.8478 242.22 26.073 242.087 26.3019 241.954C26.1636 241.502 26.0672 241.033 26.0672 240.536C26.0672 238.437 27.4037 236.664 29.2681 235.977C29.3173 235.455 29.366 234.91 29.4108 234.321C29.718 230.592 29.9135 225.62 29.9165 220.648C29.9092 215.677 29.702 210.704 29.4007 206.976C29.3558 206.386 29.308 205.84 29.2587 205.317C27.3994 204.627 26.0672 202.856 26.0672 200.761C26.0672 198.068 28.2547 195.888 30.9537 195.888C32.2149 195.888 33.3528 196.377 34.2205 197.158C34.6884 196.961 35.1753 196.751 35.6939 196.519C39.1375 195.008 43.5937 192.762 47.9165 190.284C52.2307 187.793 56.416 185.078 59.4482 182.858C59.9038 182.529 60.3239 182.216 60.7252 181.913C60.6521 181.578 60.6086 181.232 60.6086 180.874C60.6086 178.183 62.7976 176 65.4965 176C68.1969 176 70.3844 178.183 70.3844 180.874C70.3844 181.194 70.3489 181.506 70.2903 181.81C70.7032 182.112 71.1349 182.426 71.6042 182.757C74.6611 184.934 78.8319 187.673 83.1476 190.163C87.4415 192.69 91.873 194.98 95.3079 196.504C96.0237 196.828 96.6828 197.11 97.2991 197.367C97.3172 197.348 97.3398 197.335 97.3586 197.317C98.2386 196.358 99.4917 195.746 100.898 195.746C103.557 195.746 105.712 197.895 105.712 200.546C105.712 200.79 105.675 201.025 105.64 201.259C105.639 201.263 105.639 201.267 105.639 201.271C105.617 201.411 105.594 201.548 105.561 201.683C105.176 203.666 103.61 205.22 101.602 205.554C101.553 206.006 101.504 206.477 101.458 206.976C101.095 210.704 100.804 215.677 100.797 220.648C100.751 225.62 100.978 230.592 101.371 234.321ZM124.354 414.641C124.458 415.323 124.326 416.042 123.912 416.66C123.508 417.265 122.91 417.656 122.258 417.829C122.204 418.127 122.149 418.438 122.094 418.774C121.734 420.953 121.371 423.863 121.18 426.787C120.976 429.71 120.925 432.64 121.014 434.848C121.025 435.18 121.04 435.489 121.057 435.785C121.241 435.859 121.421 435.95 121.592 436.064C122.655 436.772 123.08 438.06 122.754 439.223C122.982 439.418 123.222 439.62 123.483 439.834C125.187 441.244 127.557 442.984 130.014 444.584C132.459 446.208 134.999 447.69 136.95 448.733C137.325 448.935 137.67 449.115 137.997 449.281C138.894 448.83 139.996 448.847 140.891 449.444C140.972 449.499 141.039 449.565 141.113 449.626C141.528 449.486 141.987 449.324 142.485 449.138C144.563 448.369 147.258 447.193 149.878 445.87C152.511 444.573 155.068 443.119 156.949 441.958C157.241 441.779 157.509 441.61 157.766 441.445C157.68 440.783 157.814 440.09 158.216 439.49C158.629 438.871 159.244 438.472 159.914 438.304C159.97 438.013 160.026 437.709 160.082 437.381C160.47 435.206 160.816 432.291 161.011 429.367C161.194 426.443 161.221 423.51 161.125 421.303C161.112 420.972 161.096 420.664 161.079 420.369C160.892 420.296 160.709 420.205 160.536 420.089C159.506 419.402 159.07 418.169 159.341 417.035C159.101 416.839 158.848 416.638 158.573 416.423C156.837 415.056 154.462 413.329 152.02 411.699C149.578 410.077 147.069 408.547 145.137 407.476C144.832 407.306 144.549 407.151 144.277 407.004C143.329 407.692 142.02 407.766 140.987 407.079C140.835 406.978 140.699 406.862 140.573 406.739C140.288 406.843 139.992 406.953 139.674 407.075C137.603 407.855 134.899 409.014 132.258 410.292C129.601 411.544 127.021 412.949 125.15 414.133C124.866 414.309 124.605 414.478 124.354 414.641ZM-25.6159 437.474C-26.7415 437.968 -28.2011 438.71 -29.6143 439.525C-31.0334 440.334 -32.4023 441.227 -33.4071 441.941C-33.5707 442.055 -33.7069 442.157 -33.8496 442.261C-33.783 442.625 -33.8242 443.014 -34.0285 443.362C-34.2365 443.716 -34.5652 443.947 -34.9275 444.063C-34.9506 444.236 -34.9745 444.401 -34.9955 444.596C-35.1397 445.815 -35.2222 447.442 -35.2092 449.071C-35.215 450.698 -35.144 452.324 -35.0361 453.55C-35.0194 453.756 -35.0013 453.931 -34.9832 454.113C-34.8948 454.145 -34.8029 454.154 -34.7189 454.203C-34.1277 454.549 -33.8561 455.212 -33.9699 455.851C-33.8257 455.955 -33.6873 456.056 -33.5214 456.17C-32.5196 456.872 -31.1485 457.748 -29.7469 458.565C-28.3453 459.383 -26.9066 460.146 -25.8063 460.672C-25.6239 460.76 -25.4674 460.832 -25.3052 460.907C-24.8025 460.5 -24.0882 460.412 -23.4994 460.753C-23.403 460.809 -23.3393 460.896 -23.2597 460.968C-23.0944 460.9 -22.9351 460.835 -22.7497 460.753C-21.6182 460.261 -20.1571 459.53 -18.736 458.724C-17.3185 457.912 -15.9444 457.028 -14.9469 456.303C-14.7876 456.189 -14.6551 456.088 -14.516 455.984C-14.5898 455.613 -14.5471 455.214 -14.3385 454.861C-14.1371 454.518 -13.8212 454.294 -13.4729 454.172C-13.4511 453.996 -13.4287 453.826 -13.4084 453.625C-13.278 452.405 -13.1658 450.776 -13.1491 449.149C-13.1194 447.52 -13.1759 445.89 -13.2918 444.671C-13.3179 444.37 -13.3483 444.096 -13.3787 443.85C-13.4258 443.829 -13.4765 443.827 -13.5222 443.801C-14.032 443.505 -14.2878 442.965 -14.282 442.414C-14.4508 442.287 -14.6247 442.156 -14.826 442.013C-15.819 441.296 -17.1736 440.395 -18.5731 439.574C-19.9667 438.742 -21.4074 437.988 -22.5243 437.482C-22.7047 437.4 -22.8605 437.335 -23.022 437.266C-23.5261 437.708 -24.2613 437.818 -24.8691 437.462C-24.9633 437.407 -25.0241 437.324 -25.1023 437.254C-25.2683 437.324 -25.4291 437.39 -25.6159 437.474ZM-50.6444 411.395C-51.6245 410.682 -52.6465 410.024 -53.4447 409.571C-53.5729 409.497 -53.6837 409.438 -53.7982 409.376C-54.2031 409.671 -54.7573 409.704 -55.1853 409.398C-55.2513 409.351 -55.2918 409.285 -55.3448 409.227C-55.4729 409.268 -55.5975 409.307 -55.7416 409.356C-56.6145 409.65 -57.7474 410.102 -58.8549 410.615C-59.9638 411.122 -61.0447 411.695 -61.8392 412.157C-61.9689 412.232 -62.0769 412.298 -62.1898 412.367C-62.1644 412.644 -62.2217 412.93 -62.397 413.174C-62.5759 413.424 -62.8367 413.575 -63.1141 413.637C-63.1431 413.763 -63.1712 413.884 -63.2003 414.028C-63.3893 414.928 -63.5604 416.134 -63.6624 417.346C-63.774 418.56 -63.8312 419.777 -63.8333 420.696C-63.8348 420.851 -63.8333 420.982 -63.832 421.119C-63.7682 421.149 -63.7001 421.163 -63.6408 421.204C-63.2264 421.499 -63.0692 422.013 -63.1974 422.481C-63.0968 422.568 -63.0004 422.653 -62.8845 422.75C-62.1855 423.34 -61.2257 424.082 -60.2384 424.787C-59.2497 425.489 -58.232 426.154 -57.4476 426.622C-57.3178 426.7 -57.2064 426.763 -57.0911 426.831C-56.6891 426.56 -56.1509 426.542 -55.7365 426.838C-55.6684 426.886 -55.628 426.954 -55.5729 427.013C-55.4453 426.974 -55.3222 426.937 -55.1789 426.888C-54.3053 426.599 -53.1688 426.151 -52.0577 425.648C-50.9486 425.14 -49.8642 424.57 -49.074 424.1C-48.948 424.026 -48.8436 423.959 -48.7328 423.891C-48.7632 423.61 -48.7046 423.315 -48.5264 423.065C-48.3526 422.822 -48.1019 422.678 -47.8339 422.611C-47.8056 422.48 -47.7782 422.356 -47.7492 422.207C-47.5696 421.306 -47.3784 420.104 -47.2538 418.891C-47.1219 417.68 -47.0553 416.464 -47.0588 415.546C-47.0581 415.321 -47.0625 415.115 -47.0683 414.931C-47.1023 414.912 -47.1407 414.907 -47.1734 414.884C-47.5312 414.629 -47.6847 414.21 -47.6442 413.8C-47.7616 413.694 -47.8817 413.585 -48.0215 413.465C-48.7119 412.865 -49.6579 412.102 -50.6444 411.395ZM-12.0119 389.125C-13.8749 387.769 -15.8132 386.518 -17.3271 385.662C-17.5568 385.53 -17.7719 385.411 -17.9798 385.298C-18.7505 385.865 -19.8196 385.914 -20.6367 385.333C-20.7679 385.24 -20.8845 385.133 -20.9895 385.019C-21.2126 385.091 -21.4436 385.167 -21.6913 385.252C-23.3464 385.808 -25.4985 386.67 -27.6028 387.641C-29.7092 388.606 -31.7613 389.694 -33.2709 390.572C-33.5033 390.706 -33.7184 390.834 -33.9234 390.957C-33.8721 391.486 -33.996 392.034 -34.3299 392.501C-34.6724 392.981 -35.1679 393.28 -35.7011 393.396C-35.7524 393.626 -35.8046 393.865 -35.8569 394.123C-36.2124 395.83 -36.5398 398.121 -36.7311 400.427C-36.9454 402.729 -37.0534 405.041 -37.0599 406.781C-37.0628 407.049 -37.0622 407.298 -37.0599 407.537C-36.9331 407.596 -36.8092 407.663 -36.6919 407.747C-35.9024 408.311 -35.5938 409.294 -35.8394 410.183C-35.6504 410.346 -35.4707 410.504 -35.2541 410.685C-33.9292 411.805 -32.106 413.217 -30.2301 414.556C-28.3518 415.89 -26.4199 417.15 -24.9299 418.041C-24.696 418.182 -24.4773 418.311 -24.2678 418.432C-23.503 417.914 -22.4722 417.887 -21.6835 418.452C-21.5494 418.547 -21.4313 418.655 -21.3249 418.772C-21.1011 418.702 -20.8692 418.626 -20.6215 418.543C-18.9628 417.992 -16.8042 417.147 -14.6956 416.186C-12.5885 415.221 -10.5306 414.147 -9.03111 413.25C-8.80295 413.117 -8.59215 412.989 -8.39159 412.865C-8.45241 412.326 -8.32929 411.763 -7.98661 411.286C-7.65416 410.822 -7.17974 410.529 -6.66691 410.404C-6.61691 410.169 -6.56544 409.924 -6.51411 409.659C-6.17291 407.949 -5.80932 405.659 -5.57389 403.36C-5.32318 401.061 -5.19649 398.751 -5.2045 397.007C-5.20302 396.589 -5.21029 396.207 -5.22112 395.862C-5.28699 395.825 -5.35581 395.794 -5.41886 395.749C-6.1063 395.26 -6.42421 394.455 -6.33876 393.668C-6.55387 393.473 -6.77342 393.274 -7.02976 393.053C-8.34086 391.913 -10.1372 390.465 -12.0119 389.125ZM29.2421 347.464C28.8183 347.728 28.4278 347.979 28.0549 348.224C28.2084 349.242 28.0122 350.317 27.3936 351.24C26.7894 352.144 25.8963 352.728 24.9214 352.988C24.8402 353.432 24.7591 353.896 24.6779 354.396C24.1397 357.651 23.5965 362.001 23.3118 366.369C23.0068 370.734 22.9316 375.113 23.0663 378.409C23.0829 378.905 23.1053 379.367 23.1299 379.81C23.4038 379.919 23.6711 380.056 23.9268 380.225C25.5146 381.281 26.1513 383.206 25.6631 384.944C26.0049 385.237 26.3627 385.538 26.7524 385.857C29.2979 387.965 32.837 390.561 36.5087 392.955C40.1624 395.38 43.9558 397.595 46.8706 399.154C47.429 399.455 47.9433 399.722 48.4301 399.971C49.7702 399.294 51.4181 399.321 52.7553 400.21C52.8784 400.292 52.979 400.394 53.0913 400.486C53.7099 400.277 54.3951 400.035 55.1368 399.755C58.2437 398.612 62.2652 396.852 66.1825 394.877C70.1135 392.936 73.9345 390.767 76.7449 389.029C77.1803 388.762 77.5816 388.509 77.9655 388.264C77.8373 387.273 78.0358 386.236 78.6362 385.34C79.2542 384.417 80.1734 383.824 81.1751 383.575C81.2598 383.138 81.3438 382.681 81.4279 382.19C82.0038 378.941 82.5217 374.588 82.8107 370.221C83.086 365.853 83.1272 361.47 82.9831 358.173C82.9642 357.68 82.9403 357.22 82.9142 356.78C82.6347 356.669 82.3616 356.533 82.1016 356.36C80.5631 355.335 79.9148 353.497 80.3189 351.801C79.9583 351.51 79.5809 351.208 79.1693 350.887C76.5777 348.847 73.0299 346.266 69.3827 343.831C65.7334 341.406 61.9871 339.119 59.0983 337.521C58.6435 337.266 58.2204 337.035 57.8126 336.816C56.3972 337.842 54.4423 337.953 52.9015 336.929C52.6741 336.777 52.4706 336.603 52.2822 336.419C51.8555 336.575 51.413 336.74 50.9379 336.923C47.8448 338.089 43.8073 339.816 39.8589 341.726C35.8894 343.599 32.0373 345.697 29.2421 347.464ZM-46.449 302.913C-46.4939 302.549 -46.4309 302.168 -46.2106 301.839C-45.9824 301.497 -45.6414 301.286 -45.2726 301.192C-45.2399 301.022 -45.2075 300.861 -45.1748 300.67C-44.9612 299.461 -44.7685 297.847 -44.6598 296.225C-44.5584 294.605 -44.5424 292.977 -44.5975 291.753C-44.6047 291.551 -44.617 291.38 -44.6279 291.203C-44.7271 291.162 -44.8315 291.142 -44.9243 291.081C-45.4935 290.703 -45.7282 290.024 -45.5804 289.395C-45.7196 289.283 -45.8528 289.174 -46.0122 289.049C-46.9734 288.292 -48.2917 287.334 -49.6448 286.432C-50.9994 285.53 -52.3901 284.681 -53.4621 284.088C-53.6382 283.989 -53.7902 283.909 -53.9475 283.825C-54.4719 284.203 -55.1912 284.249 -55.7619 283.869C-55.8438 283.815 -55.8923 283.736 -55.9604 283.67C-56.1313 283.732 -56.2979 283.792 -56.4906 283.867C-57.6388 284.299 -59.1374 284.941 -60.6028 285.649C-62.0761 286.344 -63.5059 287.122 -64.5439 287.78C-64.7099 287.883 -64.8467 287.975 -64.9916 288.071C-64.9373 288.445 -65.0024 288.841 -65.2306 289.181C-65.2944 289.277 -65.3835 289.34 -65.4632 289.415L-65.4653 289.417C-65.5943 289.538 -65.7348 289.634 -65.8919 289.704C-65.9376 289.726 -65.9803 289.748 -66.0281 289.766C-66.0673 289.779 -66.102 289.806 -66.1419 289.817C-66.1738 289.99 -66.2057 290.157 -66.2374 290.354C-66.4367 291.56 -66.6381 293.175 -66.7439 294.795C-66.859 296.417 -66.8859 298.042 -66.8359 299.266C-66.8293 299.469 -66.8178 299.64 -66.8075 299.818C-66.7098 299.858 -66.607 299.877 -66.5156 299.937C-65.9289 300.329 -65.7052 301.035 -65.8818 301.678C-65.7486 301.792 -65.621 301.903 -65.4675 302.028C-64.5237 302.813 -63.2083 303.775 -61.8465 304.665C-60.4905 305.564 -59.0816 306.385 -58.0009 306.965C-57.7836 307.083 -57.5895 307.182 -57.4011 307.278C-56.9064 307.034 -56.3081 307.03 -55.8169 307.358C-55.7727 307.387 -55.7496 307.432 -55.7098 307.465C-55.4751 307.387 -55.2144 307.294 -54.9319 307.188C-53.7809 306.763 -52.2872 306.11 -50.832 305.376C-49.3724 304.656 -47.9548 303.853 -46.9118 303.206C-46.7409 303.102 -46.5982 303.009 -46.449 302.913ZM-36.7152 327.112C-38.4035 325.99 -40.1362 324.932 -41.4734 324.192C-41.6863 324.072 -41.8848 323.964 -42.0753 323.862C-42.7302 324.334 -43.6276 324.391 -44.3381 323.918C-44.4404 323.85 -44.5019 323.751 -44.5874 323.669C-44.7959 323.745 -45.0133 323.825 -45.2472 323.915C-46.6794 324.455 -48.5467 325.254 -50.375 326.137C-52.209 327.005 -53.9938 327.975 -55.2853 328.794C-55.4925 328.922 -55.6634 329.037 -55.8445 329.156C-55.7757 329.624 -55.8568 330.116 -56.1408 330.54C-56.4189 330.956 -56.8333 331.212 -57.2816 331.333C-57.32 331.544 -57.3584 331.762 -57.3968 332C-57.6467 333.505 -57.8988 335.518 -58.0306 337.538C-58.1711 339.558 -58.2059 341.585 -58.1436 343.11C-58.1356 343.355 -58.124 343.582 -58.1117 343.799C-57.9886 343.849 -57.8589 343.873 -57.7438 343.949C-57.0129 344.436 -56.7348 345.317 -56.9549 346.118C-56.7883 346.26 -56.6305 346.398 -56.4393 346.554C-55.2599 347.531 -53.6236 348.73 -51.9243 349.838C-50.233 350.961 -48.4793 351.986 -47.1299 352.707C-46.8618 352.852 -46.6156 352.98 -46.3837 353.098C-45.7666 352.794 -45.0198 352.788 -44.407 353.196C-44.3519 353.233 -44.3223 353.29 -44.2723 353.331C-43.9803 353.233 -43.6559 353.118 -43.3046 352.986C-41.8682 352.456 -40.008 351.642 -38.1942 350.729C-36.3761 349.83 -34.6081 348.826 -33.3093 348.023C-33.0955 347.892 -32.9174 347.775 -32.7312 347.656C-32.7862 347.202 -32.7088 346.727 -32.4342 346.316C-32.1495 345.89 -31.7229 345.626 -31.2615 345.51C-31.2216 345.304 -31.1818 345.09 -31.1427 344.859C-30.8761 343.356 -30.6364 341.341 -30.5032 339.322C-30.3742 337.301 -30.356 335.273 -30.4228 333.747C-30.4321 333.503 -30.4437 333.277 -30.4567 333.061C-30.5821 333.01 -30.7132 332.985 -30.8298 332.907C-31.5397 332.436 -31.8329 331.59 -31.6497 330.807C-31.8221 330.668 -31.988 330.532 -32.1865 330.377C-33.386 329.432 -35.0282 328.239 -36.7152 327.112ZM-15.7813 308.956C-17.2402 309.505 -19.1438 310.32 -21.0061 311.221C-22.8771 312.104 -24.6952 313.094 -26.0114 313.927C-26.2222 314.059 -26.3975 314.176 -26.5822 314.297C-26.5126 314.774 -26.5953 315.276 -26.885 315.708C-27.1682 316.131 -27.5898 316.392 -28.0461 316.516C-28.0852 316.73 -28.1243 316.954 -28.1634 317.196C-28.4184 318.73 -28.6748 320.782 -28.8089 322.841C-28.9529 324.899 -28.9885 326.964 -28.9255 328.519C-28.9167 328.769 -28.9052 329.001 -28.8928 329.224C-28.7675 329.274 -28.6365 329.299 -28.5199 329.376C-27.7737 329.872 -27.489 330.768 -27.7129 331.585C-27.5433 331.731 -27.3812 331.872 -27.1855 332.032C-25.986 333.025 -24.3165 334.25 -22.5853 335.379C-20.8619 336.521 -19.0744 337.565 -17.7002 338.302C-17.4271 338.449 -17.1758 338.579 -16.9389 338.699C-16.3102 338.389 -15.5481 338.383 -14.923 338.799C-14.8665 338.837 -14.8368 338.895 -14.7861 338.936C-14.4891 338.836 -14.1581 338.72 -13.8003 338.585C-12.3357 338.046 -10.4401 337.215 -8.59289 336.285C-6.73856 335.368 -4.93718 334.347 -3.61155 333.526C-3.39422 333.394 -3.21249 333.276 -3.02276 333.154C-3.07987 332.691 -3.00095 332.207 -2.72058 331.789C-2.43011 331.354 -1.9956 331.085 -1.5255 330.966C-1.48485 330.757 -1.44361 330.538 -1.4037 330.303C-1.13134 328.769 -0.888045 326.718 -0.752608 324.658C-0.621466 322.598 -0.601882 320.532 -0.671454 318.977C-0.68006 318.728 -0.692519 318.497 -0.706168 318.276C-0.833006 318.226 -0.966963 318.2 -1.08579 318.121C-1.81017 317.64 -2.10716 316.777 -1.92024 315.98C-2.09559 315.838 -2.265 315.699 -2.46705 315.541C-3.69121 314.578 -5.36308 313.36 -7.08272 312.215C-8.80443 311.07 -10.5704 309.991 -11.9329 309.239C-12.151 309.116 -12.3538 309.006 -12.5486 308.901C-13.2157 309.382 -14.1299 309.44 -14.8549 308.958C-14.9585 308.888 -15.0215 308.787 -15.1084 308.704C-15.3207 308.781 -15.5424 308.864 -15.7813 308.956ZM-6.47716 253.558C-7.83172 252.656 -9.22248 251.807 -10.2944 251.214C-10.4705 251.115 -10.6226 251.035 -10.7791 250.951C-11.305 251.329 -12.0234 251.375 -12.5943 250.996C-12.6761 250.942 -12.7247 250.862 -12.7927 250.796C-12.9636 250.858 -13.1302 250.918 -13.3229 250.993C-14.471 251.425 -15.9697 252.067 -17.4351 252.775C-18.9083 253.47 -20.3383 254.248 -21.3763 254.906C-21.5421 255.009 -21.679 255.101 -21.824 255.197C-21.7689 255.571 -21.8341 255.967 -22.0629 256.308C-22.2846 256.64 -22.6164 256.846 -22.9742 256.943C-23.0061 257.117 -23.0379 257.283 -23.0698 257.48C-23.269 258.686 -23.4703 260.301 -23.5761 261.921C-23.6914 263.543 -23.7181 265.168 -23.6681 266.392C-23.6615 266.595 -23.65 266.766 -23.6399 266.944C-23.5421 266.984 -23.4392 267.003 -23.3479 267.063C-22.7612 267.455 -22.5374 268.161 -22.7142 268.804C-22.5801 268.918 -22.4534 269.029 -22.2999 269.154C-21.3559 269.939 -20.0405 270.901 -18.6789 271.791C-17.3228 272.69 -15.914 273.512 -14.8333 274.092C-14.6159 274.209 -14.4217 274.308 -14.2335 274.404C-13.7388 274.16 -13.1405 274.156 -12.6493 274.484C-12.6051 274.513 -12.5819 274.558 -12.542 274.591C-12.3074 274.513 -12.0467 274.42 -11.7641 274.314C-10.6132 273.889 -9.11952 273.236 -7.66439 272.502C-6.2048 271.782 -4.7872 270.979 -3.74417 270.332C-3.57312 270.228 -3.43056 270.135 -3.28132 270.039C-3.32612 269.675 -3.26323 269.294 -3.04293 268.965C-2.81478 268.623 -2.47358 268.412 -2.10568 268.318C-2.0723 268.148 -2.03981 267.987 -2.00718 267.796C-1.79341 266.587 -1.60085 264.973 -1.49211 263.351C-1.39079 261.731 -1.37477 260.103 -1.42981 258.879C-1.43708 258.677 -1.44939 258.506 -1.46022 258.329C-1.55946 258.288 -1.66375 258.269 -1.75647 258.207C-2.32582 257.829 -2.5605 257.15 -2.41275 256.521C-2.55191 256.409 -2.68512 256.3 -2.84445 256.175C-3.80574 255.418 -5.12409 254.461 -6.47716 253.558ZM98.4117 204.99C96.9254 204.154 95.9106 202.583 95.9106 200.761C95.9106 200.593 95.9433 200.435 95.9599 200.272C95.3709 199.82 94.7096 199.326 93.9766 198.803C90.9343 196.599 86.7301 193.918 82.3883 191.472C78.0683 188.991 73.6035 186.758 70.1846 185.205C69.6565 184.963 69.1632 184.745 68.6895 184.539C67.8312 185.282 66.7236 185.748 65.4965 185.748C64.2318 185.748 63.0903 185.256 62.2217 184.471C61.7546 184.667 61.2685 184.874 60.7506 185.106C57.3055 186.614 52.8551 188.87 48.5338 191.352C44.2209 193.847 40.0413 196.57 37.0063 198.788C36.5507 199.116 36.1306 199.428 35.7293 199.732C35.801 200.064 35.8431 200.407 35.8431 200.761C35.8431 202.856 34.5095 204.627 32.6486 205.317C32.5994 205.84 32.5516 206.386 32.5066 206.976C32.2068 210.704 31.9983 215.677 31.991 220.648C31.9938 225.62 32.1895 230.592 32.4966 234.321C32.5415 234.91 32.59 235.455 32.6393 235.977C34.5052 236.664 35.8431 238.437 35.8431 240.536C35.8431 240.846 35.8069 241.147 35.7517 241.441C36.1676 241.744 36.6029 242.057 37.0759 242.389C40.1327 244.569 44.318 247.285 48.6162 249.802C52.8943 252.36 57.3143 254.669 60.7521 256.187C61.2685 256.42 61.7531 256.63 62.2203 256.827C63.0881 256.039 64.2311 255.547 65.4965 255.547C66.7337 255.547 67.85 256.02 68.7104 256.776C69.1828 256.571 69.6738 256.355 70.199 256.116C73.6237 254.57 78.0886 252.34 82.4072 249.855C86.7374 247.389 90.9343 244.696 93.9751 242.492C94.4337 242.164 94.8566 241.852 95.2608 241.55C95.1913 241.223 95.1515 240.884 95.1515 240.536C95.1515 238.373 96.5748 236.559 98.5306 235.923C98.5921 235.417 98.6522 234.89 98.708 234.321C99.1007 230.592 99.3281 225.62 99.2816 220.648C99.2745 215.677 98.9818 210.704 98.621 206.976C98.5544 206.259 98.4835 205.606 98.4117 204.99Z" fill="#F2F7FF"/>
</g>
<defs>
<clipPath id="clip0_2161_2987">
<rect width="602" height="477" rx="30" fill="white"/>
</clipPath>
</defs>
</svg>
