<svg width="112" height="44" viewBox="0 0 112 44" fill="none" xmlns="http://www.w3.org/2000/svg">
<path d="M21.9555 1H90.0445C101.576 1 111 10.4355 111 21.9555C111 33.4866 101.576 42.9111 90.0445 42.9111H21.9555C10.4245 42.9111 1 33.4866 1 21.9555C1 10.4355 10.4245 1 21.9555 1Z" fill="white" stroke="#2C2E35" stroke-width="0.761214" stroke-miterlimit="100"/>
<path d="M63.601 3.48357V0.999964H90.0449C101.576 0.999964 111 10.4355 111 21.9555C111 33.4866 101.576 42.9111 90.0449 42.9111H65.1311V40.4274H56.8486V3.48357H63.601Z" fill="#2C2E35"/>
<path d="M24.2731 3.4834H51.8036V40.4273H24.2731C13.8951 40.4273 5.41309 32.1227 5.41309 21.9553C5.41309 11.7991 13.8951 3.4834 24.2731 3.4834Z" stroke="#2C2E35" stroke-width="0.761214" stroke-miterlimit="100"/>
<path fill-rule="evenodd" clip-rule="evenodd" d="M16.6334 28.8963V14.3161H14.8816C14.6044 14.3161 14.4048 14.2607 14.2829 14.1609C14.1646 14.0426 14.1055 13.8911 14.1055 13.7063C14.1055 13.5289 14.172 13.3737 14.2829 13.2628C14.4011 13.1519 14.6007 13.0965 14.8816 13.0965H21.2015C26.0025 13.2961 27.9539 18.7179 27.9982 21.9555C28.0093 24.6054 26.4016 28.2532 24.3393 29.4285C23.4412 30.0716 22.3879 30.127 21.2015 30.127H14.8816C14.6007 30.127 14.4011 30.0679 14.2829 29.9496C14.1646 29.8314 14.1055 29.6835 14.1055 29.5061C14.1055 29.3287 14.172 29.1846 14.2829 29.0737C14.4011 28.9555 14.6007 28.8963 14.8816 28.8963H16.6334ZM17.9085 28.8963H21.3124C22.277 28.8963 23.1862 28.8298 24.0289 28.1645C25.6809 27.0447 26.9227 23.6186 26.8451 21.9555C26.8451 19.106 25.0378 14.4603 21.3124 14.3161H17.9085V28.8963Z" fill="#2C2E35"/>
<path d="M32.8217 15.1477V28.0647C32.8439 28.852 33.487 28.8852 33.487 28.8852H34.2631C34.3592 28.8852 34.4442 28.8926 34.5181 28.9074C34.7029 28.9222 34.8359 28.9776 34.9173 29.0737C35.0281 29.1735 35.0836 29.3287 35.0836 29.5061C35.0836 29.6835 35.0281 29.8277 34.9173 29.9496C34.8175 30.0605 34.629 30.127 34.3961 30.127H30.6153C30.534 30.127 30.46 30.1197 30.3935 30.1049H30.2272C29.9833 30.1049 29.8059 30.0494 29.695 29.9386C29.5952 29.8277 29.5398 29.6725 29.5398 29.4951C29.5398 29.3066 29.5952 29.1513 29.695 29.0404C29.7948 28.9407 29.9833 28.8852 30.2272 28.8852H30.8814C30.8814 28.8852 31.5245 28.9074 31.5355 28.0647V26.6234V15.1366C31.5245 14.294 30.8814 14.3161 30.8814 14.3161H29.8281C29.5841 14.3161 29.4067 14.2607 29.3069 14.1609C29.1961 14.0389 29.1406 13.8948 29.1406 13.7063C29.1406 13.5289 29.2072 13.3737 29.3069 13.2628C29.4104 13.1519 29.5841 13.0965 29.8281 13.0965H34.3961C34.6401 13.0965 34.8138 13.1519 34.9173 13.2628C35.0281 13.3737 35.0836 13.5289 35.0836 13.7063C35.0836 13.8948 35.0281 14.05 34.9173 14.1609C34.8175 14.2607 34.6401 14.3161 34.3961 14.3161H33.487C33.487 14.3161 32.8439 14.3494 32.8217 15.1477Z" fill="#2C2E35"/>
<path fill-rule="evenodd" clip-rule="evenodd" d="M46.016 25.8472L40.3281 25.8694L39.3967 28.9296H40.317C40.5314 28.9296 40.6829 28.985 40.7716 29.0959C40.8603 29.1957 40.9157 29.3509 40.9157 29.5283C40.9157 29.6983 40.8677 29.8388 40.7716 29.9496C40.6829 30.0605 40.5277 30.127 40.317 30.127H37.1238C36.9131 30.127 36.7579 30.0605 36.6692 29.9496C36.5805 29.8388 36.5361 29.6983 36.5361 29.5283C36.5361 29.3509 36.5805 29.1957 36.6692 29.0959C36.7579 28.985 36.9094 28.9296 37.1238 28.9296H37.9443L43.0667 13.5067H43.5657L48.4553 28.9296H49.4088C49.6158 28.9296 49.7673 28.985 49.8634 29.0959C49.9521 29.1994 49.9965 29.3435 49.9965 29.5283C49.9965 29.6983 49.9521 29.8388 49.8634 29.9496C49.7747 30.0605 49.6195 30.127 49.4088 30.127H46.0936C45.8719 30.1196 45.7167 30.0605 45.628 29.9496C45.5393 29.8388 45.4949 29.6946 45.4949 29.5283C45.4949 29.3435 45.5393 29.1994 45.628 29.0959C45.7167 28.985 45.8719 28.9296 46.0936 28.9296H47.0028L46.016 25.8472ZM45.6723 24.6498L43.3439 16.6778H43.1665L40.6718 24.683L45.6723 24.6498Z" fill="#2C2E35"/>
<path d="M67.1156 29.7721L62.3146 15.2141V29.5282H64.0776C64.3363 29.5282 64.5248 29.5873 64.643 29.7056C64.7539 29.8165 64.8094 29.968 64.8094 30.1602C64.8094 30.3302 64.7539 30.478 64.643 30.6037C64.5248 30.7146 64.3363 30.7737 64.0776 30.7811H60.0306C59.7719 30.7737 59.5871 30.7146 59.4762 30.6037C59.358 30.478 59.2988 30.3302 59.2988 30.1602C59.2988 29.968 59.358 29.8165 59.4762 29.7056C59.5871 29.5873 59.7719 29.5282 60.0306 29.5282H60.962V14.693H60.2745C60.0158 14.693 59.8273 14.6376 59.7091 14.5267C59.5982 14.4084 59.5427 14.2569 59.5427 14.0721C59.5427 13.8873 59.5982 13.7358 59.7091 13.6175C59.8273 13.5066 60.0158 13.4512 60.2745 13.4512H62.9577L67.1045 26.2684L71.1847 13.4512H73.879C74.1451 13.4512 74.3373 13.5066 74.4556 13.6175C74.5664 13.7358 74.6219 13.8873 74.6219 14.0721C74.6219 14.2569 74.5664 14.4084 74.4556 14.5267C74.3373 14.6376 74.1451 14.693 73.879 14.693H73.2027V29.5282H74.1118C74.378 29.5282 74.5775 29.5836 74.6884 29.7056C74.7993 29.8165 74.8547 29.968 74.8547 30.1602C74.8547 30.3302 74.7993 30.478 74.6884 30.6037C74.5775 30.7146 74.378 30.7811 74.1118 30.7811H70.076C69.8209 30.7811 69.6325 30.7146 69.5105 30.6037C69.3922 30.478 69.3331 30.3302 69.3331 30.1602C69.3331 29.968 69.3922 29.8165 69.5105 29.7056C69.6214 29.5873 69.8099 29.5282 70.076 29.5282H71.8389V15.2141L67.1156 29.7721Z" fill="white"/>
<path d="M79.6669 22.0219V29.5282H88.1157V25.8582C88.1157 25.5699 88.16 25.3482 88.2598 25.2262C88.3596 25.0932 88.4816 25.0266 88.6479 25.0266C88.8031 25.0266 88.9251 25.0932 89.0249 25.2262C89.1136 25.3482 89.169 25.5699 89.169 25.8582V30.7811H76.9505C76.6954 30.7811 76.5181 30.7146 76.4183 30.6037C76.3074 30.478 76.252 30.3302 76.252 30.1602C76.252 29.968 76.3074 29.8165 76.4183 29.7056C76.5218 29.5873 76.6991 29.5282 76.9505 29.5282H78.3586V14.693H76.9505C76.6991 14.693 76.5218 14.6376 76.4183 14.5267C76.3074 14.4084 76.252 14.2569 76.252 14.0721C76.252 13.8836 76.3074 13.7395 76.4183 13.6175C76.5218 13.5066 76.6991 13.4512 76.9505 13.4512H88.6146V17.731C88.6146 18.0267 88.5666 18.2373 88.4705 18.363C88.3818 18.496 88.2487 18.5626 88.0935 18.5626C87.9383 18.5626 87.8126 18.496 87.7165 18.363C87.6204 18.2373 87.5724 18.0267 87.5724 17.731V14.693H79.6669V20.514H83.1595V19.2389C83.1595 18.9432 83.2113 18.7289 83.3147 18.5958C83.4034 18.4739 83.5365 18.4073 83.7028 18.4073C83.8506 18.4073 83.9726 18.4702 84.0687 18.5958C84.1685 18.7289 84.2239 18.9395 84.2239 19.2389V23.8181C84.2239 24.1137 84.1722 24.3244 84.0687 24.4501C83.9726 24.5831 83.8506 24.6496 83.7028 24.6496C83.5365 24.6496 83.4034 24.5831 83.3147 24.4501C83.2113 24.3244 83.1595 24.1137 83.1595 23.8181V22.0219H79.6669Z" fill="white"/>
<path fill-rule="evenodd" clip-rule="evenodd" d="M92.6497 29.5282V14.693H90.8979C90.6207 14.693 90.4211 14.6376 90.3102 14.5267C90.1919 14.4084 90.1328 14.2569 90.1328 14.0721C90.1328 13.8836 90.1882 13.7395 90.3102 13.6175C90.4211 13.5066 90.617 13.4512 90.8979 13.4512H97.2178C102.019 13.6508 103.97 19.1613 104.014 22.4654C104.026 25.1708 102.418 28.874 100.367 30.0715C99.4575 30.7256 98.4152 30.7811 97.2178 30.7811H90.8979C90.617 30.7811 90.4211 30.722 90.3102 30.6037C90.1919 30.478 90.1328 30.3302 90.1328 30.1602C90.1328 29.9717 90.1882 29.8165 90.3102 29.7056C90.4211 29.5873 90.617 29.5282 90.8979 29.5282H92.6497ZM93.9248 29.5282H97.3287C98.2933 29.5282 99.2025 29.4617 100.045 28.7742C101.697 27.6433 102.95 24.1618 102.861 22.4654C102.861 19.5604 101.054 14.8371 97.3287 14.693H93.9248V29.5282Z" fill="white"/>
</svg>
