<svg width="118" height="216" viewBox="0 0 118 216" fill="none" xmlns="http://www.w3.org/2000/svg">
<path d="M87.0612 144.171C87.0612 143.195 86.6829 142.313 86.0786 141.64C86.234 141.275 86.3982 140.895 86.5813 140.491C87.7688 137.819 89.545 134.368 91.4985 131.019C93.4342 127.659 95.5701 124.417 97.2714 122.043C97.5284 121.682 97.7724 121.348 98.0083 121.029C98.2506 121.078 98.5011 121.105 98.7582 121.105C100.857 121.105 102.556 119.405 102.556 117.305C102.556 115.206 100.857 113.502 98.7582 113.502C98.4792 113.502 98.21 113.537 97.9481 113.594C97.7131 113.281 97.4708 112.954 97.2161 112.599C95.4951 110.236 93.4195 106.956 91.5392 103.566C89.6263 100.194 87.8679 96.7321 86.6609 94.0729C86.4699 93.6594 86.2975 93.2734 86.1339 92.903C86.7041 92.2379 87.0612 91.3845 87.0612 90.4386C87.0612 89.3182 86.5675 88.3199 85.7964 87.6248C85.8331 87.5359 85.8664 87.4545 85.9045 87.3642C86.8327 85.179 88.1745 82.3195 89.6223 79.5156C91.0748 76.714 92.6307 73.966 93.8816 71.9486C94.3899 71.1344 94.8388 70.4456 95.2 69.9042C95.8751 69.7674 96.3841 69.2472 96.5045 68.5666C96.6744 68.5469 96.8338 68.5282 97.025 68.5104C98.3149 68.385 100.033 68.2839 101.752 68.2824C103.47 68.2661 105.189 68.3443 106.477 68.4794C106.686 68.4997 106.863 68.5234 107.047 68.5454C107.27 69.2162 107.881 69.7071 108.625 69.7071C109.556 69.7071 110.31 68.9516 110.31 68.0201C110.31 67.5903 110.136 67.2084 109.872 66.9105C109.944 66.7411 110.012 66.5783 110.098 66.3886C110.624 65.2015 111.411 63.6708 112.278 62.1858C113.137 60.6958 114.085 59.2565 114.84 58.2028C114.966 58.0262 115.077 57.8788 115.191 57.7258C115.295 57.7453 115.39 57.7876 115.499 57.7876C116.429 57.7876 117.184 57.0338 117.184 56.1024C117.184 55.1709 116.429 54.4152 115.499 54.4152C115.38 54.4152 115.276 54.4593 115.164 54.4829C115.051 54.3322 114.94 54.1881 114.816 54.0147C114.051 52.9661 113.13 51.5119 112.296 50.0074C111.448 48.5109 110.668 46.9753 110.132 45.7948C110.043 45.6002 109.97 45.4333 109.894 45.2607C110.143 44.9668 110.31 44.5988 110.31 44.1827C110.31 43.2513 109.556 42.4958 108.625 42.4958C107.902 42.4958 107.298 42.9575 107.059 43.5981C106.871 43.6161 106.69 43.634 106.477 43.6503C105.189 43.7562 103.47 43.8246 101.752 43.8246C100.033 43.8229 98.3149 43.7497 97.025 43.647C96.812 43.6308 96.6306 43.6128 96.4427 43.595C96.254 43.0926 95.8336 42.7271 95.3106 42.5837C94.9788 42.1416 94.5607 41.5669 94.0906 40.874C92.9755 39.2496 91.5896 37.0278 90.3087 34.7464C89.0318 32.4627 87.8574 30.122 87.0587 28.3201C86.6781 27.4751 86.3853 26.7554 86.1796 26.2228C86.2772 26.0087 86.3398 25.7751 86.3398 25.5244C86.3398 25.0945 86.1666 24.7126 85.9022 24.4153C85.9745 24.2453 86.042 24.0824 86.1282 23.8928C86.6536 22.7057 87.441 21.175 88.3079 19.69C89.1668 18.2 90.1152 16.7605 90.8699 15.707C90.996 15.5303 91.1066 15.383 91.2212 15.23C91.3245 15.2495 91.4197 15.2918 91.5287 15.2918C92.4591 15.2918 93.2138 14.5378 93.2138 13.6064C93.2138 12.675 92.4591 11.9195 91.5287 11.9195C91.4099 11.9195 91.3058 11.9635 91.1944 11.987C91.0804 11.8364 90.9698 11.6924 90.8454 11.5189C90.0809 10.4703 89.1603 9.01613 88.3258 7.51161C87.4783 6.01509 86.6976 4.47955 86.1624 3.29901C86.0729 3.10442 85.9998 2.93751 85.924 2.76493C86.1731 2.47013 86.3398 2.10296 86.3398 1.68694C86.3398 0.755513 85.5866 0 84.6545 0C83.9322 0 83.3279 0.461545 83.0889 1.10234C82.901 1.12018 82.7205 1.13819 82.5074 1.15453C81.219 1.26024 79.4997 1.32861 77.7821 1.32861C76.0626 1.32711 74.345 1.25374 73.0551 1.15119C72.8419 1.13485 72.6607 1.11701 72.4728 1.09917C72.2336 0.459877 71.6285 0 70.9062 0C69.9775 0 69.2227 0.755513 69.2227 1.68694C69.2227 2.11847 69.3968 2.50348 69.6635 2.80145C69.592 2.97169 69.5252 3.13377 69.4406 3.32335C68.9186 4.5104 68.1427 6.0476 67.2854 7.53929C66.4249 9.02913 65.4863 10.4718 64.7186 11.5189C64.5934 11.6924 64.4819 11.8364 64.3672 11.987C64.2559 11.9635 64.1525 11.9195 64.0339 11.9195C63.1034 11.9195 62.3485 12.675 62.3485 13.6064C62.3485 14.5378 63.1034 15.2918 64.0339 15.2918C64.1395 15.2918 64.2322 15.2503 64.333 15.2315C64.4469 15.3862 64.5584 15.5353 64.6845 15.7135C65.436 16.7687 66.3826 18.2065 67.2448 19.6965C68.1166 21.1782 68.9088 22.7057 69.4358 23.8928C69.5497 24.1427 69.644 24.3673 69.7334 24.5816C69.4203 24.8884 69.2227 25.3134 69.2227 25.7865C69.2227 25.8785 69.2609 25.9576 69.2747 26.0446C69.1503 26.3075 68.9934 26.6267 68.7877 27.0102C68.2915 27.9253 67.5977 29.1238 66.817 30.2629C66.0466 31.4092 65.1952 32.4994 64.5234 33.2956C64.364 33.4853 64.2159 33.6539 64.0793 33.8061C63.8028 33.8705 63.5791 34.0586 63.4807 34.3207C63.3881 34.3296 63.2978 34.3386 63.1912 34.3467C62.5462 34.4004 61.6849 34.4338 60.8261 34.4338C59.9665 34.4338 59.106 34.3972 58.461 34.3451C58.3544 34.3369 58.2642 34.3281 58.1705 34.319C58.0511 33.9991 57.7476 33.7686 57.3857 33.7686C56.9213 33.7686 56.5449 34.1465 56.5449 34.613C56.5449 34.8288 56.6318 35.0209 56.7652 35.1699C56.7294 35.2553 56.6953 35.3375 56.653 35.4329C56.3919 36.024 56.0032 36.7958 55.5744 37.5407C55.1442 38.2849 54.675 39.0087 54.2895 39.5314C54.2269 39.6185 54.1708 39.691 54.1138 39.7667C54.0585 39.7554 54.0064 39.7334 53.9479 39.7334C53.4819 39.7334 53.1044 40.111 53.1044 40.5759C53.1044 41.0433 53.4819 41.4203 53.9479 41.4203C54.0007 41.4203 54.047 41.3991 54.0975 41.3901C54.1545 41.4675 54.2106 41.5424 54.2732 41.6319C54.649 42.1596 55.1224 42.8776 55.5541 43.6251C55.9909 44.3651 56.387 45.1313 56.6505 45.7224C56.7074 45.8478 56.7546 45.9609 56.7994 46.0684C56.6431 46.2215 56.5449 46.4331 56.5449 46.6709C56.5449 47.1374 56.9213 47.5153 57.3857 47.5153C57.8014 47.5153 58.1316 47.2091 58.2015 46.8134C58.2861 46.8036 58.3658 46.7946 58.461 46.7858C59.106 46.7214 59.9665 46.6725 60.8261 46.6709C61.6849 46.6644 62.5462 46.7002 63.1912 46.7686C63.2953 46.7792 63.3831 46.7906 63.4759 46.8019C63.5873 47.1374 63.8931 47.3825 64.2639 47.3825C64.7308 47.3825 65.1074 47.0055 65.1074 46.5381C65.1074 46.324 65.0211 46.1336 64.8885 45.9846C64.9252 45.8998 64.9585 45.8176 65.0016 45.7224C65.2651 45.1313 65.6587 44.362 66.0931 43.6218C66.5234 42.8751 66.9967 42.1546 67.3748 41.6287C67.4375 41.54 67.4936 41.4658 67.5506 41.3893C67.6017 41.3991 67.6498 41.4203 67.7043 41.4203C68.1704 41.4203 68.5476 41.0433 68.5476 40.5759C68.5476 40.111 68.1704 39.7334 67.7043 39.7334C67.6449 39.7334 67.5937 39.7554 67.5376 39.7667C67.4806 39.691 67.4253 39.6185 67.3627 39.5314C66.9804 39.007 66.52 38.28 66.1021 37.5277C65.6784 36.7795 65.2871 36.011 65.0196 35.419C64.974 35.3213 64.9381 35.2375 64.9 35.1511C64.9984 35.0339 65.0594 34.8923 65.0829 34.7334C65.1943 34.5038 65.3221 34.2482 65.4831 33.9485C65.9752 33.031 66.6754 31.8366 67.4561 30.6976C68.2272 29.552 69.0845 28.4652 69.7523 27.6665C69.8823 27.5118 70.0003 27.379 70.1157 27.2488C70.3549 27.3799 70.6151 27.4734 70.9062 27.4734C71.7359 27.4734 72.3947 26.8611 72.5346 26.0698C72.7045 26.0511 72.8639 26.0324 73.0551 26.0144C74.345 25.889 76.0626 25.7881 77.7821 25.7865C79.4997 25.7701 81.219 25.8483 82.5074 25.9836C82.7165 26.0039 82.8929 26.0274 83.0767 26.0503C83.2003 26.4199 83.446 26.7162 83.7688 26.9232C84.1063 27.3505 84.7179 28.1526 85.4475 29.2239C86.565 30.8466 87.9452 33.0725 89.2237 35.3547C90.4981 37.6401 91.6669 39.9833 92.4681 41.7843C92.8121 42.5471 93.0837 43.2033 93.2871 43.717C93.2423 43.8677 93.1927 44.0175 93.1927 44.1827C93.1927 44.6143 93.3667 44.9994 93.6336 45.2974C93.5619 45.4666 93.4953 45.6296 93.4107 45.8193C92.8885 47.0064 92.1126 48.5436 91.2553 50.0351C90.3948 51.5249 89.4562 52.9678 88.6885 54.0147C88.5633 54.1881 88.4518 54.3322 88.3372 54.4829C88.2258 54.4593 88.1225 54.4152 88.0038 54.4152C87.0733 54.4152 86.3186 55.1709 86.3186 56.1024C86.3186 57.0338 87.0733 57.7876 88.0038 57.7876C88.1096 57.7876 88.2022 57.7461 88.3031 57.7274C88.4169 57.882 88.5283 58.0311 88.6544 58.2093C89.4059 59.2646 90.3525 60.7025 91.2147 62.1923C92.0867 63.6742 92.8787 65.2015 93.4057 66.3886C93.5196 66.6385 93.6139 66.8633 93.7035 67.0774C93.3904 67.3844 93.1927 67.8094 93.1927 68.2824C93.1927 68.3873 93.2341 68.4793 93.2528 68.5796C93.0089 69.2195 92.6705 70.0793 92.2419 71.0977C91.3163 73.2839 89.9688 76.14 88.5186 78.9431C87.0635 81.7431 85.502 84.4885 84.2535 86.5068C84.2031 86.5875 84.1568 86.6592 84.108 86.738C83.8355 86.6753 83.5558 86.6363 83.2646 86.6363C81.6289 86.6363 80.2479 87.6768 79.7128 89.1268C79.3053 89.1652 78.8816 89.2033 78.422 89.2384C75.517 89.4761 71.6423 89.6292 67.7693 89.6309C63.8963 89.6259 60.0218 89.4648 57.1165 89.2302C56.657 89.1952 56.2317 89.1587 55.8241 89.1203C55.2866 87.6735 53.9064 86.6363 52.2741 86.6363C50.1757 86.6363 48.4775 88.3396 48.4775 90.4386C48.4775 91.4195 48.8581 92.3054 49.4673 92.9796C49.3137 93.3434 49.151 93.7212 48.9704 94.1251C47.7928 96.8037 46.0408 100.269 44.1117 103.631C42.1712 106.987 40.0549 110.242 38.3241 112.6C38.068 112.955 37.8248 113.281 37.5881 113.594C37.3271 113.537 37.0571 113.502 36.7789 113.502C34.6822 113.502 32.9823 115.206 32.9823 117.305C32.9823 119.405 34.6822 121.105 36.7789 121.105C37.0286 121.105 37.2709 121.078 37.5076 121.032C37.7435 121.353 37.9882 121.689 38.246 122.055C39.9427 124.432 42.0767 127.676 44.0174 131.032C45.9855 134.373 47.77 137.819 48.9574 140.491C49.2103 141.048 49.43 141.56 49.63 142.039C48.9208 142.73 48.4775 143.692 48.4775 144.762C48.4775 145.721 48.8435 146.586 49.4283 147.255C48.9956 148.132 48.4849 149.166 47.8659 150.327C46.929 152.079 45.8733 154.144 44.6745 156.317C43.487 158.498 42.1768 160.798 40.8658 163.098C39.5327 165.385 38.2022 167.674 36.9098 169.793C35.6353 171.923 34.369 173.866 33.3231 175.555C32.705 176.527 32.147 177.384 31.6533 178.134C31.3898 178.031 31.106 177.97 30.8067 177.97C29.8046 177.97 28.9579 178.607 28.6303 179.496C28.3814 179.519 28.1211 179.543 27.8398 179.564C26.0593 179.709 23.6861 179.803 21.3129 179.804C18.9396 179.801 16.5664 179.702 14.7859 179.559C14.5038 179.538 14.2436 179.514 13.9939 179.491C13.6653 178.605 12.8195 177.97 11.8199 177.97C10.534 177.97 9.49296 179.013 9.49296 180.299C9.49296 180.9 9.72632 181.443 10.0998 181.856C10.0053 182.079 9.90621 182.31 9.79561 182.557C9.07338 184.199 8.00053 186.321 6.81807 188.382C5.62895 190.438 4.3334 192.432 3.2727 193.877C3.11013 194.103 2.96688 194.287 2.81731 194.485C2.65874 194.451 2.49517 194.431 2.3261 194.431C1.04187 194.431 0 195.473 0 196.759C0 198.046 1.04187 199.088 2.3261 199.088C2.47734 199.088 2.62542 199.071 2.7685 199.043C2.91741 199.246 3.06133 199.438 3.22473 199.669C4.26427 201.126 5.57115 203.114 6.7611 205.17C7.96638 207.216 9.06022 209.328 9.78745 210.965C9.94186 211.306 10.0769 211.62 10.1989 211.913C9.76463 212.337 9.49296 212.926 9.49296 213.582C9.49296 214.867 10.534 215.91 11.8199 215.91C12.9732 215.91 13.924 215.067 14.1077 213.964C14.3224 213.941 14.5478 213.917 14.7859 213.895C16.5664 213.723 18.9396 213.584 21.3129 213.581C23.6861 213.559 26.0593 213.667 27.8398 213.854C28.1113 213.88 28.3626 213.909 28.6041 213.938C28.9085 214.871 29.7738 215.549 30.8067 215.549C32.0917 215.549 33.1328 214.507 33.1328 213.219C33.1328 212.622 32.9009 212.081 32.531 211.669C32.6261 211.445 32.7268 211.213 32.8391 210.965C33.567 209.328 34.6545 207.213 35.8508 205.161C37.0374 203.104 38.3461 201.117 39.3888 199.662C39.5522 199.433 39.6953 199.243 39.8442 199.042C39.9915 199.071 40.1435 199.088 40.2996 199.088C41.5847 199.088 42.6265 198.046 42.6265 196.759C42.6265 195.473 41.5847 194.431 40.2996 194.431C40.1306 194.431 39.967 194.451 39.8084 194.485C39.6597 194.287 39.5164 194.102 39.3545 193.876C38.2997 192.429 37.0286 190.42 35.8761 188.342C34.7041 186.277 33.6273 184.155 32.8879 182.526C32.7708 182.272 32.665 182.036 32.5651 181.808C32.9139 181.401 33.1328 180.878 33.1328 180.299C33.1328 180.227 33.1181 180.16 33.1116 180.089C33.5906 179.118 34.2039 177.899 34.9375 176.489C35.8753 174.736 36.9228 172.667 38.1289 170.498C39.3155 168.317 40.6308 166.019 41.9426 163.72C43.2763 161.434 44.6119 159.148 45.9034 157.027C47.1851 154.902 48.4434 152.953 49.4901 151.265C50.1692 150.173 50.7946 149.233 51.3298 148.43C51.6331 148.508 51.9463 148.563 52.2741 148.563C54.1578 148.563 55.7104 147.187 56.0097 145.386C56.361 145.347 56.7286 145.309 57.1165 145.273C60.0218 144.993 63.8963 144.765 67.7693 144.76C71.6423 144.724 75.517 144.9 78.422 145.206C78.8646 145.25 79.2752 145.297 79.6698 145.344C80.1658 146.866 81.5786 147.971 83.2646 147.971C85.3614 147.971 87.0612 146.271 87.0612 144.171ZM65.8678 37.6621C66.3095 38.3997 66.7096 39.1643 66.9714 39.7569C67.0137 39.8514 67.0479 39.9328 67.0837 40.0175C66.9488 40.1664 66.8617 40.3595 66.8617 40.5759C66.8617 40.7885 66.9471 40.9766 67.0755 41.1247C67.0391 41.2102 67.0041 41.2924 66.9601 41.3884C66.6924 41.9804 66.3062 42.7499 65.8776 43.4964C65.4505 44.2439 64.9846 44.9676 64.6038 45.4928C64.5412 45.5807 64.4859 45.6532 64.4283 45.7298C64.3738 45.7183 64.3225 45.6963 64.2639 45.6963C63.8931 45.6963 63.5865 45.9414 63.475 46.276C63.3831 46.2874 63.2953 46.2989 63.1912 46.3085C62.5462 46.3769 61.6849 46.4161 60.8261 46.4096C59.9665 46.4079 59.106 46.3574 58.461 46.2947C58.3308 46.2825 58.2162 46.2695 58.1056 46.2557C57.9592 46.0041 57.698 45.8281 57.3857 45.8281C57.358 45.8281 57.3345 45.8413 57.3077 45.8437C57.2279 45.7403 57.141 45.6231 57.0482 45.4928C56.6668 44.9676 56.2032 44.2406 55.7803 43.4932C55.3517 42.7466 54.9645 41.9772 54.697 41.3844C54.653 41.2884 54.6172 41.2054 54.5799 41.1198C54.7066 40.9724 54.7904 40.7868 54.7904 40.5759C54.7904 40.3595 54.7035 40.1664 54.5684 40.0167C54.6042 39.9319 54.6368 39.8514 54.679 39.7569C54.9402 39.1609 55.3306 38.3932 55.76 37.6491C56.1911 36.9041 56.6611 36.1819 57.0451 35.6592C57.1077 35.5713 57.1636 35.4988 57.2214 35.4222C57.2767 35.4337 57.3272 35.4556 57.3857 35.4556C57.7476 35.4556 58.0503 35.226 58.1705 34.9068C58.2642 34.898 58.3544 34.889 58.461 34.8808C59.106 34.8288 59.9665 34.7929 60.8261 34.7929C61.6849 34.7929 62.5462 34.8271 63.1912 34.8808C63.2978 34.889 63.3881 34.898 63.4815 34.9061C63.6011 35.226 63.9036 35.4556 64.2639 35.4556C64.3152 35.4556 64.3607 35.4352 64.4095 35.4264C64.4664 35.5044 64.5217 35.5795 64.5852 35.669C64.9626 36.1974 65.4327 36.9219 65.8678 37.6621ZM85.3312 23.4319C85.206 23.607 85.0945 23.7527 84.9798 23.9041C84.8708 23.8821 84.7701 23.8389 84.6545 23.8389C83.9119 23.8389 83.3003 24.3291 83.0767 24.9984C82.8929 25.0211 82.7165 25.0448 82.5074 25.0651C81.219 25.2004 79.4997 25.2784 77.7821 25.2622C76.0626 25.2606 74.345 25.1595 73.0551 25.0341C72.7939 25.0098 72.5654 24.9838 72.3434 24.9576C72.0514 24.4545 71.5294 24.0995 70.9062 24.0995C70.8509 24.0995 70.8038 24.1255 70.7493 24.1312C70.5907 23.9245 70.4167 23.6908 70.2313 23.4319C69.4683 22.3832 68.5428 20.9324 67.697 19.4342C66.8397 17.9427 66.0671 16.4023 65.5303 15.2235C65.4417 15.0304 65.3709 14.8651 65.2961 14.6934C65.5498 14.3986 65.719 14.0266 65.719 13.6064C65.719 13.1725 65.5441 12.7865 65.2749 12.4877C65.3457 12.3185 65.4115 12.1564 65.4961 11.9683C66.0167 10.7796 66.7974 9.24407 67.6547 7.75255C68.5168 6.2642 69.4586 4.82304 70.2248 3.77606C70.3499 3.60265 70.4613 3.45775 70.5761 3.30718C70.6867 3.32986 70.7891 3.37388 70.9062 3.37388C71.6285 3.37388 72.2336 2.91383 72.4728 2.27471C72.6607 2.25687 72.8419 2.23886 73.0551 2.22268C74.345 2.11847 76.0626 2.04677 77.7821 2.0451C79.4997 2.04677 81.219 2.11347 82.5074 2.21935C82.7205 2.23569 82.901 2.25353 83.0889 2.27154C83.3279 2.91233 83.9322 3.37388 84.6545 3.37388C84.7577 3.37388 84.8473 3.33319 84.945 3.31535C85.0587 3.46992 85.1693 3.61982 85.2954 3.79891C86.0501 4.85406 86.9887 6.29838 87.859 7.78023C88.7422 9.25707 89.5409 10.7829 90.0647 11.9683C90.1502 12.1564 90.216 12.3185 90.2876 12.4869C90.0191 12.7857 89.8435 13.1725 89.8435 13.6064C89.8435 14.0298 90.0142 14.4051 90.2713 14.7007C90.1973 14.8716 90.1282 15.0369 90.0402 15.2283C89.5067 16.4105 88.7357 17.9509 87.8769 19.4409C87.0245 20.9341 86.0941 22.3832 85.3312 23.4319ZM91.6669 61.9302C90.8096 60.4387 90.0371 58.8981 89.5002 57.7193C89.4116 57.5263 89.3408 57.3609 89.266 57.1892C89.5197 56.8945 89.6889 56.5224 89.6889 56.1024C89.6889 55.6683 89.514 55.2825 89.2449 54.9837C89.3157 54.8143 89.3815 54.6522 89.4661 54.4641C89.9866 53.2756 90.7675 51.74 91.6246 50.2483C92.4868 48.76 93.4285 47.319 94.1947 46.272C94.32 46.0986 94.4314 45.9535 94.546 45.803C94.6566 45.8258 94.7591 45.8697 94.8763 45.8697C95.5984 45.8697 96.2035 45.4098 96.4427 44.7698C96.6306 44.7527 96.812 44.7348 97.025 44.7185C98.3149 44.6143 100.033 44.5426 101.752 44.5411C103.47 44.5426 105.189 44.6094 106.477 44.7153C106.69 44.7315 106.871 44.7503 107.059 44.7673C107.298 45.4081 107.902 45.8697 108.625 45.8697C108.728 45.8697 108.817 45.829 108.915 45.8111C109.029 45.9659 109.139 46.1164 109.265 46.2947C110.02 47.3498 110.959 48.7943 111.829 50.276C112.712 51.753 113.511 53.2787 114.035 54.4641C114.12 54.6522 114.186 54.8143 114.258 54.9828C113.989 55.2816 113.813 55.6683 113.813 56.1024C113.813 56.5257 113.984 56.901 114.241 57.1965C114.167 57.3676 114.098 57.5328 114.01 57.7241C113.477 58.9063 112.706 60.4467 111.847 61.9367C110.994 63.4299 110.064 64.879 109.301 65.9277C109.176 66.1028 109.064 66.2485 108.95 66.4007C108.841 66.3781 108.74 66.3349 108.625 66.3349C107.882 66.3349 107.27 66.8249 107.047 67.4942C106.863 67.5171 106.686 67.5406 106.477 67.5609C105.189 67.6962 103.47 67.7744 101.752 67.758C100.033 67.7564 98.3149 67.6555 97.025 67.5301C96.764 67.5064 96.5353 67.4796 96.3133 67.4536C96.0215 66.9503 95.4993 66.5953 94.8763 66.5953C94.821 66.5953 94.7737 66.6222 94.7192 66.6272C94.5607 66.4204 94.3866 66.1866 94.2012 65.9277C93.4384 64.879 92.5127 63.4282 91.6669 61.9302ZM35.2295 188.715C36.4511 190.754 37.5531 192.86 38.2778 194.498C38.3893 194.745 38.4892 194.975 38.5836 195.198C38.2079 195.612 37.9728 196.156 37.9728 196.759C37.9728 197.349 38.1989 197.88 38.5592 198.291C38.4616 198.515 38.3591 198.75 38.2444 199C37.5068 200.632 36.4413 202.76 35.2547 204.817C34.0779 206.881 32.7928 208.881 31.7404 210.33C31.5785 210.556 31.4354 210.743 31.2865 210.941C31.1311 210.909 30.9709 210.891 30.8067 210.891C29.7738 210.891 28.9085 211.569 28.6041 212.5C28.3626 212.53 28.1113 212.558 27.8398 212.585C26.0593 212.772 23.6861 212.881 21.3129 212.859C18.9396 212.855 16.5664 212.716 14.7859 212.543C14.4437 212.512 14.1322 212.478 13.8377 212.444C13.4393 211.736 12.6894 211.252 11.8199 211.252C11.7401 211.252 11.6645 211.268 11.5864 211.276C11.371 210.995 11.1358 210.681 10.8855 210.331C9.83292 208.881 8.55286 206.878 7.38573 204.809C6.20144 202.75 5.13525 200.622 4.39436 198.993C4.27876 198.742 4.17466 198.506 4.07555 198.28C4.431 197.871 4.6537 197.344 4.6537 196.759C4.6537 196.156 4.41868 195.612 4.0429 195.198C4.13651 194.975 4.23579 194.744 4.34639 194.497C5.06612 192.856 6.14298 190.735 7.32793 188.676C8.51871 186.621 9.8191 184.629 10.8773 183.183C11.0399 182.958 11.1831 182.773 11.3319 182.575C11.4896 182.609 11.6523 182.628 11.8199 182.628C12.8195 182.628 13.6653 181.992 13.9939 181.106C14.2436 181.083 14.5046 181.059 14.7859 181.038C16.5664 180.896 18.9396 180.796 21.3129 180.793C23.6861 180.795 26.0593 180.888 27.8398 181.034C28.1211 181.055 28.3814 181.079 28.6303 181.102C28.9579 181.991 29.8046 182.628 30.8067 182.628C30.9531 182.628 31.0955 182.611 31.2344 182.585C31.3841 182.79 31.5272 182.983 31.6916 183.216C32.7318 184.673 34.0282 186.667 35.2295 188.715ZM84.0543 140.453C83.799 140.399 83.5355 140.369 83.2646 140.369C81.5786 140.369 80.1658 141.476 79.6698 142.997C79.2752 143.045 78.8646 143.092 78.422 143.135C75.517 143.441 71.6423 143.617 67.7693 143.581C63.8963 143.576 60.0218 143.348 57.1165 143.068C56.5587 143.016 56.0495 142.961 55.5696 142.906C54.9173 141.749 53.6941 140.96 52.2741 140.96C52.144 140.96 52.0211 140.985 51.8943 140.998C51.542 140.54 51.1574 140.025 50.75 139.455C49.0305 137.089 46.942 133.819 45.0373 130.442C43.1048 127.081 41.3643 123.61 40.154 120.951C39.9653 120.54 39.7954 120.156 39.6343 119.787C40.2135 119.12 40.577 118.259 40.577 117.305C40.577 116.321 40.194 115.433 39.5807 114.758C39.7336 114.394 39.8962 114.016 40.0761 113.613C41.2504 110.934 43.0088 107.471 44.9428 104.112C46.8867 100.757 49.0094 97.5055 50.7368 95.1461C50.9932 94.7911 51.2362 94.4646 51.4721 94.1519C51.7316 94.2081 51.9984 94.2406 52.2741 94.2406C53.9064 94.2406 55.2874 93.2035 55.8241 91.7558C56.2317 91.7175 56.657 91.6801 57.1165 91.6451C60.0218 91.4122 63.8963 91.2511 67.7693 91.2446C71.6423 91.2478 75.517 91.3992 78.422 91.6386C78.8808 91.6736 79.3053 91.711 79.7121 91.7493C80.2471 93.201 81.6281 94.2406 83.2646 94.2406C83.5062 94.2406 83.7403 94.213 83.9697 94.1691C84.2056 94.4931 84.4504 94.8318 84.7091 95.1998C86.4072 97.5772 88.5235 100.832 90.4835 104.175C92.4778 107.502 94.2752 110.939 95.4595 113.615C95.6407 114.016 95.8043 114.393 95.958 114.756C95.3439 115.431 94.9599 116.32 94.9599 117.305C94.9599 118.267 95.3284 119.135 95.9174 119.804C95.7586 120.171 95.5904 120.553 95.404 120.962C94.2004 123.626 92.4614 127.098 90.5243 130.457C88.6048 133.824 86.5065 137.089 84.7871 139.455C84.5317 139.812 84.2893 140.14 84.0543 140.453Z" fill="#E3ECF2"/>
</svg>
