<svg width="21" height="223" viewBox="0 0 21 223" fill="none" xmlns="http://www.w3.org/2000/svg">
<path d="M20.2373 1V221.679" stroke="#D9E2E8"/>
<path d="M19.916 1L0.000319088 0.999998" stroke="#D9E2E8"/>
<path d="M19.916 15.1338L9.63695 15.1338" stroke="#D9E2E8"/>
<path d="M19.916 42.7588L9.63695 42.7588" stroke="#D9E2E8"/>
<path d="M19.916 70.3838L9.63695 70.3838" stroke="#D9E2E8"/>
<path d="M19.916 98.0088L9.63695 98.0088" stroke="#D9E2E8"/>
<path d="M19.916 125.634L9.63695 125.634" stroke="#D9E2E8"/>
<path d="M19.916 153.259L9.63695 153.259" stroke="#D9E2E8"/>
<path d="M19.916 180.884L9.63695 180.884" stroke="#D9E2E8"/>
<path d="M19.916 208.509L9.63695 208.509" stroke="#D9E2E8"/>
<path d="M19.916 201.442L9.63695 201.442" stroke="#D9E2E8"/>
<path d="M19.916 173.817L9.63695 173.817" stroke="#D9E2E8"/>
<path d="M19.916 146.192L9.63695 146.192" stroke="#D9E2E8"/>
<path d="M19.916 118.567L9.63695 118.567" stroke="#D9E2E8"/>
<path d="M19.916 90.9419L9.63695 90.9419" stroke="#D9E2E8"/>
<path d="M19.916 63.3169L9.63695 63.3169" stroke="#D9E2E8"/>
<path d="M19.916 35.6919L9.63695 35.6919" stroke="#D9E2E8"/>
<path d="M19.916 8.06689L9.63695 8.06689" stroke="#D9E2E8"/>
<path d="M19.916 215.576L9.63695 215.576" stroke="#D9E2E8"/>
<path d="M19.916 187.951L9.63695 187.951" stroke="#D9E2E8"/>
<path d="M19.916 160.326L9.63695 160.326" stroke="#D9E2E8"/>
<path d="M19.916 132.701L9.63695 132.701" stroke="#D9E2E8"/>
<path d="M19.916 105.076L9.63695 105.076" stroke="#D9E2E8"/>
<path d="M19.916 77.4507L9.63695 77.4507" stroke="#D9E2E8"/>
<path d="M19.916 49.8257L9.63695 49.8257" stroke="#D9E2E8"/>
<path d="M19.916 22.2007L9.63695 22.2007" stroke="#D9E2E8"/>
<path d="M19.916 111.5L0.000319088 111.5" stroke="#D9E2E8"/>
<path d="M19.916 56.25L0.000319088 56.25" stroke="#D9E2E8"/>
<path d="M19.916 166.75L0.000319088 166.75" stroke="#D9E2E8"/>
<path d="M19.916 194.375L0.000319088 194.375" stroke="#D9E2E8"/>
<path d="M19.916 139.125L0.000319088 139.125" stroke="#D9E2E8"/>
<path d="M19.916 83.875L0.000319088 83.875" stroke="#D9E2E8"/>
<path d="M19.916 28.625L0.000319088 28.625" stroke="#D9E2E8"/>
<path d="M19.916 222L0.000319088 222" stroke="#D9E2E8"/>
</svg>
